<?xml version="1.0" standalone="no"?>
<!DOCTYPE svg PUBLIC "-//W3C//DTD SVG 1.1//EN" "http://www.w3.org/Graphics/SVG/1.1/DTD/svg11.dtd" >
<svg xmlns="http://www.w3.org/2000/svg">
<metadata>Generated by IcoMoon</metadata>
<defs>
<font id="icomoon" horiz-adv-x="1024">
<font-face units-per-em="1024" ascent="960" descent="-64" />
<missing-glyph horiz-adv-x="1024" />
<glyph unicode="&#x20;" d="" horiz-adv-x="512" />
<glyph unicode="&#xe600;" d="M904.158-64h-835.891c-9.421 0-17.067 7.68-17.067 17.067v989.867c0 9.421 7.646 17.067 17.067 17.067h793.225c65.536 0 111.309-50.893 111.309-123.733v-810.667c0-43.145-21.47-89.6-68.642-89.6zM85.333-29.867h818.825c27.307 0 34.509 36.284 34.509 55.467v810.667c0 44.612-23.859 89.6-77.175 89.6h-776.158v-955.733zM170.667-46.933c-9.421 0-17.067 7.68-17.067 17.067v955.733c0 9.421 7.646 17.067 17.067 17.067s17.067-7.646 17.067-17.067v-955.733c0-9.387-7.646-17.067-17.067-17.067zM562.825 499.2c-68.233 0-123.733 55.501-123.733 123.733s55.501 123.733 123.733 123.733 123.733-55.501 123.733-123.733-55.501-123.733-123.733-123.733zM562.825 712.533c-49.391 0-89.6-40.209-89.6-89.6s40.209-89.6 89.6-89.6c49.357 0 89.6 40.209 89.6 89.6s-40.209 89.6-89.6 89.6zM798.174 140.8c-0.239 0-0.444 0-0.683 0h-469.333c-9.421 0-17.067 7.68-17.067 17.067 0 165.854 98.816 273.067 251.733 273.067 151.415 0 249.719-105.097 251.699-268.117 0.478-1.604 0.717-3.243 0.717-4.949 0-9.387-7.646-17.067-17.067-17.067zM345.6 174.933h434.483c-7.066 163.123-115.541 221.867-217.225 221.867-101.751 0-210.227-58.743-217.259-221.867z" />
<glyph unicode="&#xe601;" d="M354.133 627.2l-179.2-179.2 178.347-178.347c98.133-98.133 183.467-177.493 189.44-176.64 6.827 0.853 17.067 6.827 22.187 11.947 8.533 8.533-23.040 44.373-142.507 163.84l-153.6 153.6h678.4v51.2h-678.4l156.16 156.16c122.027 122.88 153.6 157.867 145.067 166.4-5.973 5.973-16.213 10.24-23.893 10.24-6.827 0-93.867-80.213-192-179.2z" horiz-adv-x="1058" />
<glyph unicode="&#xe602;" d="M85.606-38.4c-1.775 0-3.55 0.273-5.257 0.785-5.7 1.877-9.967 6.519-11.366 12.322-18.91 79.838-17.34 209.374 42.735 335.565-23.347 119.876 36.625 500.77 69.427 611.908 2.287 7.817 9.865 12.902 17.92 12.151 8.124-0.717 14.575-7.134 15.428-15.223 4.267-41.438 57.719-172.407 112.094-236.578 106.428 27.375 264.363 27.375 370.825 0 54.34 64.171 107.827 195.14 112.094 236.578 0.853 8.090 7.305 14.507 15.428 15.223 8.124 0.751 15.633-4.335 17.92-12.151 32.734-111.070 92.74-491.998 69.393-611.874 60.143-126.157 61.679-255.727 42.735-335.565-1.331-5.803-5.666-10.479-11.332-12.322-5.598-1.809-11.913-0.58-16.418 3.379-30.14 26.112-144.896 65.468-249.242 65.468-66.014 0-119.671-15.497-155.17-44.783-6.315-5.188-15.394-5.188-21.709 0-35.567 29.252-89.19 44.783-155.204 44.783-104.346 0-219.102-39.424-249.207-65.468-3.072-2.731-7.031-4.198-11.093-4.198zM678.059 65.399c97.109 0 197.837-30.413 248.525-58.436 12.083 75.844 5.154 186.095-47.582 293.683-1.775 3.55-2.15 7.646-1.263 11.469 20.582 86.46-18.159 380.689-52.019 537.463-23.791-65.57-67.379-152.030-110.046-197.905-4.335-4.676-10.889-6.519-17.101-4.813-104.175 29.252-269.005 29.252-373.146 0-6.144-1.741-12.732 0.137-17.067 4.813-42.701 45.909-86.289 132.335-110.012 197.905-33.929-156.774-72.67-451.038-52.053-537.429 0.922-3.823 0.478-7.885-1.263-11.469-52.736-107.588-59.631-217.873-47.616-293.683 50.722 27.989 151.484 58.402 248.559 58.402 68.847 0 124.621-14.882 166.059-44.271 41.404 29.355 97.178 44.271 166.025 44.271zM338.705 174.217v0c-40.448 0-80.009 17.34-111.445 48.777-3.209 3.243-4.983 7.578-4.983 12.083s1.809 8.875 4.983 12.083c31.437 31.437 71.031 48.811 111.445 48.811 40.55 0 78.848-16.93 110.729-48.811 3.209-3.174 4.983-7.543 4.983-12.083s-1.809-8.875-4.983-12.083c-31.881-31.915-70.178-48.777-110.729-48.777zM265.045 235.008c22.221-17.306 47.855-26.692 73.66-26.692v0c25.873 0 50.825 9.182 73.045 26.692-44.339 35.021-102.229 34.645-146.705 0zM687.104 174.217v0c-40.448 0-80.009 17.34-111.445 48.777-3.209 3.243-4.983 7.578-4.983 12.083s1.809 8.875 4.983 12.083c31.437 31.437 70.997 48.811 111.411 48.811 40.55 0 78.882-16.93 110.763-48.777 3.209-3.243 4.983-7.578 4.983-12.083 0-4.471-1.809-8.875-4.983-12.083-31.915-31.949-70.178-48.811-110.729-48.811zM613.444 235.008c22.221-17.306 47.821-26.692 73.66-26.692v0c25.907 0 50.859 9.182 73.114 26.692-44.407 34.987-102.298 34.645-146.773 0z" />
<glyph unicode="&#xe603;" d="M921.6 242.483h-819.2c-9.421 0-17.067 7.646-17.067 17.067v580.267c0 9.421 7.646 17.067 17.067 17.067h819.2c9.387 0 17.067-7.646 17.067-17.067v-580.267c0-9.421-7.68-17.067-17.067-17.067zM119.467 276.617h785.067v546.133h-785.067v-546.133zM972.8 242.483h-921.6c-9.421 0-17.067 7.646-17.067 17.067s7.646 17.067 17.067 17.067h921.6c9.387 0 17.067-7.646 17.067-17.067s-7.68-17.067-17.067-17.067zM97.041-38.4c-2.321 0-4.71 0.512-6.997 1.536-8.567 3.823-12.425 13.926-8.533 22.528l126.601 280.917c3.857 8.567 13.892 12.39 22.596 8.533 8.567-3.857 12.425-13.995 8.533-22.596l-126.601-280.917c-2.867-6.315-9.079-10.001-15.599-10.001zM492.885 839.817c-2.321 0-4.71 0.478-6.997 1.502-8.602 3.891-12.425 13.995-8.533 22.596l27.238 60.416c3.823 8.567 13.892 12.425 22.562 8.533 8.567-3.857 12.425-13.961 8.533-22.562l-27.273-60.416c-2.833-6.349-9.011-10.069-15.531-10.069zM943.275-38.4c-6.485 0-12.732 3.721-15.599 10.069l-126.635 280.951c-3.891 8.602-0.034 18.705 8.533 22.562 8.636 3.925 18.705 0.034 22.596-8.533l126.635-280.986c3.857-8.602 0.034-18.671-8.533-22.528-2.287-1.058-4.642-1.536-6.997-1.536zM547.294 840.055c-6.519 0-12.732 3.721-15.565 10.035l-27.136 60.177c-3.891 8.602-0.068 18.705 8.533 22.562 8.636 3.891 18.705 0.034 22.528-8.533l27.136-60.177c3.857-8.602 0.068-18.705-8.533-22.562-2.253-1.024-4.574-1.502-6.963-1.502zM818.825 310.75h-238.558c-9.387 0-17.067 7.646-17.067 17.067v251.733c0 6.997 4.267 13.278 10.718 15.838 6.485 2.56 13.892 0.956 18.739-4.13l238.524-251.733c4.745-4.949 6.007-12.186 3.345-18.466-2.731-6.212-8.909-10.308-15.701-10.308zM597.333 344.883h181.794l-181.794 191.863v-191.863z" />
<glyph unicode="&#xe604;" d="M836.267-60.416c-3.652 0-7.339 1.195-10.411 3.55l-194.389 149.197-194.423-149.197c-5.12-3.925-12.083-4.642-17.886-1.775s-9.557 8.841-9.557 15.292v861.867c0 9.421 7.646 17.067 17.067 17.067s17.067-7.646 17.067-17.067v-827.255l177.323 136.055c6.144 4.745 14.711 4.745 20.719 0l177.425-136.055v827.255c0 9.421 7.68 17.067 17.067 17.067s17.067-7.646 17.067-17.067v-861.867c0-6.451-3.652-12.425-9.523-15.292-2.423-1.161-4.983-1.775-7.543-1.775zM409.6 477.184h-221.867c-9.421 0-17.067 7.646-17.067 17.067v336.077c0 71.1 50.62 124.723 117.76 124.723h426.667c67.174 0 138.24-75.127 138.24-146.125 0-9.387-7.68-17.067-17.067-17.067s-17.067 7.68-17.067 17.067c0 52.326-55.467 111.991-104.107 111.991h-426.667c-48.435 0-83.627-38.093-83.627-90.59v-319.010h204.8c9.421 0 17.067-7.646 17.067-17.067s-7.646-17.067-17.067-17.067zM426.667 800.119c-9.421 0-17.067 7.646-17.067 17.067 0 50.995-29.355 103.731-78.507 103.731-9.421 0-17.067 7.646-17.067 17.067s7.646 17.067 17.067 17.067c70.485 0 112.64-70.11 112.64-137.865 0-9.387-7.646-17.067-17.067-17.067z" />
<glyph unicode="&#xe605;" d="M938.667-64h-493.329c-71.919 0-172.271 66.355-172.271 174.421v542.379c0 1.399 0.171 2.765 0.478 4.028-0.307 4.13-0.478 8.465-0.478 13.039 0 78.814 48.265 85.333 102.025 85.333h409.975c9.387 0 17.067-7.646 17.067-17.067s-7.68-17.067-17.067-17.067h-409.975c-57.105 0-67.891-8.124-67.891-51.2s10.786-51.2 67.891-51.2h563.575c9.387 0 17.067-7.646 17.067-17.067v-648.533c0-9.387-7.68-17.067-17.067-17.067zM307.2 595.763v-485.342c0-92.126 89.941-140.288 138.138-140.288h476.262v614.4h-546.509c-25.361 0-49.459 1.434-67.891 11.23zM887.467 652.8h-477.867c-9.421 0-17.067 7.646-17.067 17.067s7.646 17.067 17.067 17.067h477.867c9.387 0 17.067-7.646 17.067-17.067s-7.68-17.067-17.067-17.067zM293.001 64.273c-1.468 0-2.97 0.171-4.471 0.614-48.060 12.971-117.897 70.11-117.897 130.082v555.964c0 64.785 46.763 106.667 119.091 106.667h427.076c9.387 0 17.067-7.646 17.067-17.067 0-9.387-7.68-17.067-17.067-17.067h-427.042c-25.566 0-84.958-7.066-84.958-72.533v-555.998c0-38.127 51.814-86.050 92.638-97.109 9.114-2.458 14.473-11.844 12.083-20.924-2.116-7.612-8.977-12.629-16.521-12.629zM183.023 162.065c-1.058 0-2.15 0.102-3.209 0.307-54.067 10.377-111.548 55.159-111.548 117.862v556.032c0 72.909 71.748 123.733 136.158 123.733h478.242c9.387 0 17.067-7.646 17.067-17.067s-7.68-17.067-17.067-17.067h-478.242c-47.172 0-102.025-39.117-102.025-89.6v-556.032c0-42.769 42.633-76.459 83.797-84.343 9.25-1.775 15.326-10.718 13.551-19.968-1.536-8.158-8.704-13.858-16.725-13.858z" />
<glyph unicode="&#xe606;" d="M501.009 246.409c-123.665 0-224.188 137.762-231.97 258.219-26.522 7.202-47.172 30.993-47.172 57.515v85.333c0 24.337 21.436 43.042 34.133 51.985v76.015c0 81.442 56.9 143.155 132.949 145.033 15.497 6.417 81.408 32.051 148.651 32.051 104.55 0 162.133-62.908 162.133-177.084v-68.71c56.866-3.243 68.267-23.825 68.267-59.29v-85.333c0-27.887-16.35-50.176-40.073-57.31-7.202-122.709-103.799-258.423-226.918-258.423zM537.6 918.426c-68.198 0-137.523-30.276-138.172-30.549-2.15-0.99-4.506-1.468-6.895-1.468-59.324 0-102.4-46.66-102.4-110.933v-85.333c0-6.144-3.345-11.844-8.704-14.882-10.684-6.042-25.429-19.046-25.429-27.785v-85.333c0-13.141 14.404-25.6 29.662-25.6 9.387 0 17.067-7.646 17.067-17.067 0-108.203 88.474-238.933 198.315-238.933 107.042 0 193.263 130.731 193.263 238.933 0 9.421 7.646 17.067 17.067 17.067 15.462 0 22.528 13.278 22.528 25.6v85.333c0 18.125 0 25.6-51.2 25.6-9.455 0-17.067 7.646-17.067 17.067v85.333c-0.034 96.188-41.95 142.95-128.034 142.95zM68.267-56.525c-9.421 0-17.067 7.68-17.067 17.067v46.933c0 120.183 81.203 192 217.225 192h55.057l64.614 93.252c5.359 7.748 15.974 9.66 23.757 4.267 7.748-5.325 9.694-16.009 4.301-23.689l-69.7-100.625c-3.209-4.608-8.431-7.339-14.029-7.339h-64c-116.361 0-183.091-57.549-183.091-157.867v-46.933c0-9.421-7.68-17.067-17.067-17.067zM955.733-56.525c-9.421 0-17.067 7.68-17.067 17.067v46.933c0 116.395-101.99 157.867-197.461 157.867h-64c-5.871 0-11.332 3.038-14.473 7.987l-66.867 107.145c-4.983 7.987-2.594 18.5 5.393 23.484 7.987 5.018 18.534 2.594 23.518-5.393l61.918-99.055h54.545c140.663 0 231.526-75.366 231.526-192v-46.933c0.034-9.455-7.646-17.101-17.033-17.101zM417.758-9.591c-0.922 0-1.877 0.068-2.833 0.239-5.427 0.887-10.103 4.369-12.527 9.353l-85.333 174.933c-3.243 6.588-1.843 14.541 3.447 19.729 5.291 5.12 13.346 6.315 19.831 2.867l170.667-89.6c4.813-2.526 8.124-7.134 8.943-12.527 0.785-5.393-0.956-10.786-4.847-14.643l-85.333-85.333c-3.174-3.243-7.543-5.018-12.015-5.018zM370.551 143.121l52.019-106.667 52.019 52.019-104.038 54.647zM588.39-9.591c-4.506 0-8.875 1.775-12.117 4.983l-85.333 85.333c-3.857 3.823-5.632 9.284-4.813 14.746 0.819 5.359 4.233 10.035 9.079 12.527l174.251 89.566c6.451 3.379 14.609 2.15 19.797-3.072 5.257-5.222 6.519-13.244 3.209-19.831l-88.883-174.933c-2.492-4.881-7.134-8.26-12.493-9.148-0.956-0.102-1.809-0.171-2.697-0.171zM531.661 88.337l52.122-52.122 54.34 106.871-106.462-54.75z" />
<glyph unicode="&#xe607;" d="M593.050 839.413c-38.746-13.047-73.934-49.421-85.399-88.562-8.303-27.28-5.535-64.84 8.303-122.959 10.675-44.281 35.188-121.378 44.281-139.169 9.093-18.187 19.768-14.233 64.84 22.931 75.515 62.468 121.773 113.075 138.774 150.635 12.652 27.676 11.861 71.561-1.977 101.214-13.442 29.257-38.351 55.747-65.236 68.794s-75.515 16.605-103.586 7.117zM682.798 802.644c36.374-18.582 56.537-51.398 56.537-91.725 0-34.002-9.489-51.793-48.63-93.307-29.257-30.839-102.005-96.469-107.144-96.469-1.186 0-7.512 17.396-14.233 38.746-31.629 98.446-40.723 166.845-26.094 194.52 13.838 26.49 37.56 46.653 65.631 55.747 16.605 5.535 56.142 1.186 73.934-7.512zM626.656 786.039c-26.885-5.931-43.886-23.327-47.444-49.816-2.768-20.954 5.14-39.932 22.141-53.77 19.768-16.21 40.327-18.187 62.863-6.326 60.491 31.234 28.862 124.145-37.56 109.912zM66.422 674.941c-6.721-3.558-7.117-20.164-7.117-260.547 0-144.704 1.581-257.384 3.558-258.57 5.535-3.558 301.665-85.399 308.386-85.399 3.558 0 79.073 18.187 167.636 40.327l161.31 40.327 164.077-41.118c126.913-32.025 165.659-40.327 170.798-37.164 6.326 3.954 6.721 23.722 7.907 259.361 0.791 201.242-0.395 256.198-3.954 258.965-2.768 2.372-24.513 7.117-48.63 10.28-23.722 3.558-74.329 11.070-112.284 16.605-73.538 11.070-79.469 10.28-79.469-8.303 0-6.326 3.163-10.675 9.093-13.047 4.744-1.581 47.839-8.698 95.679-15.815 47.839-6.721 91.725-13.442 98.051-14.629l10.675-2.372v-226.941c0-211.917-0.395-226.941-6.721-226.941-5.535 0-191.753 45.863-274.78 67.608l-15.024 3.954v307.991l-9.884 4.744c-7.512 3.163-11.070 3.163-15.815-0.791-5.14-4.349-5.931-25.303-5.931-158.542v-153.402l-14.629-3.954c-62.468-16.605-271.222-67.608-275.966-67.608-5.14 0-5.931 26.49-5.931 228.917v228.917l24.908 8.698c26.094 9.489 39.537 20.559 35.583 30.048-4.744 13.047-15.024 13.442-46.653 1.581l-30.839-11.466-142.727 39.537c-78.678 21.745-145.495 40.327-148.658 41.118s-9.093 0-12.652-2.372zM226.545 602.193c66.817-18.582 122.564-33.606 123.75-33.606 0.791 0 1.581-103.191 1.581-229.708v-229.708l-10.675 2.372c-6.326 1.581-64.445 17.396-129.68 35.583l-118.61 32.815-1.186 230.103c-0.791 218.242-0.395 230.103 5.931 228.127 3.954-1.186 62.073-17.396 128.89-35.978z" horiz-adv-x="1095" />
<glyph unicode="&#xe608;" d="M432.723 935.226c-241.961-43.768-416.206-249.394-416.206-491.355 0-214.71 137.91-404.645 342.71-472.361 53.677-17.342 81.755-21.471 152.774-21.471 75.148-0.826 95.794 2.477 156.903 23.948 154.426 54.503 261.781 162.684 315.458 317.11 27.252 77.626 27.252 227.923 0 305.548-52.852 153.6-161.858 263.432-311.329 314.632-74.323 26.426-173.419 35.51-240.31 23.948z" />
<glyph unicode="&#xe609;" d="M512 925.867c263.509 0 477.867-214.357 477.867-477.867s-214.357-477.867-477.867-477.867c-263.509 0-477.867 214.357-477.867 477.867s214.357 477.867 477.867 477.867zM512 960c-282.761 0-512-229.239-512-512s229.239-512 512-512c282.795 0 512 229.239 512 512s-229.274 512-512 512v0zM501.931 174.933c-151.108 0-274.057 122.505-274.057 273.067s121.617 273.067 271.053 273.067c89.122 0 169.95-43.52 221.764-119.467 5.291-7.782 3.311-18.398-4.506-23.723-7.782-5.291-18.398-3.345-23.689 4.506-45.363 66.423-115.883 104.55-193.57 104.55-130.662 0-236.919-107.179-236.919-238.933s107.622-238.933 239.923-238.933c65.673 0 129.126 27.204 174.182 74.684 6.485 6.793 17.306 7.134 24.132 0.649 6.827-6.417 7.1-17.271 0.683-24.132-51.473-54.238-124.006-85.333-198.997-85.333z" />
<glyph unicode="&#xe60a;" d="M45.863 854.832c-5.535-5.535-6.326-48.63-6.326-416.717s0.791-411.181 6.326-416.717c5.535-5.535 56.537-6.326 501.72-6.326h495.79l5.931 8.698c5.535 7.907 6.326 53.77 6.326 414.344s-0.791 406.437-6.326 414.344l-5.931 8.698h-495.79c-445.183 0-496.185-0.791-501.72-6.326zM1020.046 758.363v-67.212h-944.927v134.425h944.927v-67.212zM1020.046 353.112v-302.456h-944.927v604.911h944.927v-302.456zM510.419 569.773c-29.257-14.629-42.7-53.77-28.862-85.399 20.164-45.467 80.259-53.375 112.68-14.629 25.699 30.443 14.629 82.236-20.954 100.819-15.024 7.907-46.258 7.512-62.863-0.791zM566.165 534.19c4.744-4.349 7.117-11.861 7.117-23.327 0-13.442-1.977-18.582-10.28-24.908-22.141-17.396-52.979-3.163-52.979 24.513 0 29.653 34.002 43.886 56.142 23.722zM482.347 391.067c-5.931-11.466-5.535-226.545 0.791-232.871 3.163-3.163 23.722-4.744 67.212-4.744 57.328 0 62.468 0.395 66.422 7.512 2.372 4.744 3.954 49.025 3.954 116.633 0 93.307-0.791 109.517-6.326 114.656-5.14 5.14-17.001 6.326-66.817 6.326-56.142 0-61.282-0.791-65.236-7.512zM585.143 276.015v-90.934h-71.166v181.869h71.166v-90.934z" horiz-adv-x="1095" />
<glyph unicode="&#xe60b;" d="M500.156 197.12c-4.096 0-8.158 1.468-11.401 4.335l-199.987 180.019c-6.997 6.349-7.578 17.101-1.263 24.098s17.067 7.646 24.098 1.263l188.587-169.711 188.553 169.711c6.997 6.383 17.783 5.734 24.098-1.263 6.349-6.997 5.734-17.783-1.263-24.098l-199.953-179.985c-3.311-2.901-7.407-4.369-11.469-4.369zM494.933 222.72c-9.421 0-17.067 7.646-17.067 17.067v682.667c0 9.421 7.646 17.067 17.067 17.067s17.067-7.646 17.067-17.067v-682.667c0-9.421-7.646-17.067-17.067-17.067zM1006.933-33.28h-989.867c-9.421 0-17.067 7.646-17.067 17.067v648.533c0 9.421 7.646 17.067 17.067 17.067h324.267c9.421 0 17.067-7.646 17.067-17.067s-7.646-17.067-17.067-17.067h-307.2v-614.4h955.733v614.4h-341.333c-9.387 0-17.067 7.646-17.067 17.067s7.68 17.067 17.067 17.067h358.4c9.387 0 17.067-7.646 17.067-17.067v-648.533c0-9.421-7.68-17.067-17.067-17.067z" />
<glyph unicode="&#xe60c;" d="M699.733 140.8h-614.4c-9.421 0-17.067 7.68-17.067 17.067v785.067c0 9.421 7.646 17.067 17.067 17.067h614.4c9.421 0 17.067-7.646 17.067-17.067v-785.067c0-9.387-7.646-17.067-17.067-17.067zM102.4 174.933h580.267v750.933h-580.267v-750.933zM938.667-64h-648.533c-9.421 0-17.067 7.68-17.067 17.067v187.733c0 9.387 7.646 17.067 17.067 17.067s17.067-7.68 17.067-17.067v-170.667h614.4v750.933h-204.8c-9.421 0-17.067 7.646-17.067 17.067s7.646 17.067 17.067 17.067h221.867c9.421 0 17.067-7.646 17.067-17.067v-785.067c0-9.387-7.646-17.067-17.067-17.067zM290.475 192c-9.353 0-17.237 7.68-17.237 17.067s7.475 17.067 16.896 17.067h0.341c9.421 0 17.067-7.68 17.067-17.067s-7.646-17.067-17.067-17.067zM290.133 260.267c-9.421 0-17.067 7.68-17.067 17.067v34.133c0 9.387 7.646 17.067 17.067 17.067s17.067-7.68 17.067-17.067v-34.133c0-9.387-7.646-17.067-17.067-17.067zM290.133 362.667c-9.421 0-17.067 7.68-17.067 17.067v34.133c0 9.387 7.646 17.067 17.067 17.067s17.067-7.68 17.067-17.067v-34.133c0-9.387-7.646-17.067-17.067-17.067zM290.133 465.067c-9.421 0-17.067 7.646-17.067 17.067v34.133c0 9.421 7.646 17.067 17.067 17.067s17.067-7.646 17.067-17.067v-34.133c0-9.421-7.646-17.067-17.067-17.067zM290.133 567.467c-9.421 0-17.067 7.646-17.067 17.067v34.133c0 9.421 7.646 17.067 17.067 17.067s17.067-7.646 17.067-17.067v-34.133c0-9.421-7.646-17.067-17.067-17.067zM290.133 669.867c-9.421 0-17.067 7.646-17.067 17.067v34.133c0 9.421 7.646 17.067 17.067 17.067s17.067-7.646 17.067-17.067v-34.133c0-9.421-7.646-17.067-17.067-17.067zM682.667 721.067h-34.133c-9.421 0-17.067 7.646-17.067 17.067s7.646 17.067 17.067 17.067h34.133c9.421 0 17.067-7.646 17.067-17.067s-7.646-17.067-17.067-17.067zM580.267 721.067h-34.133c-9.421 0-17.067 7.646-17.067 17.067s7.646 17.067 17.067 17.067h34.133c9.421 0 17.067-7.646 17.067-17.067s-7.646-17.067-17.067-17.067zM477.867 721.067h-34.133c-9.421 0-17.067 7.646-17.067 17.067s7.646 17.067 17.067 17.067h34.133c9.421 0 17.067-7.646 17.067-17.067s-7.646-17.067-17.067-17.067zM375.467 721.067h-34.133c-9.421 0-17.067 7.646-17.067 17.067s7.646 17.067 17.067 17.067h34.133c9.421 0 17.067-7.646 17.067-17.067s-7.646-17.067-17.067-17.067z" />
<glyph unicode="&#xe60d;" d="M562.212 827.552c-21.35-9.489-39.537-25.699-47.839-43.095-8.303-16.605-8.303-22.141-8.303-313.131 0-278.338 0.791-296.92 7.512-311.944 9.489-21.745 29.257-40.327 47.049-45.467 22.141-5.931 464.161-5.535 470.486 0.791 3.558 3.558 4.744 67.212 4.744 262.919 0 251.058-0.395 258.175-7.512 262.128-5.14 2.372-83.818 3.954-228.127 3.954-218.638 0-220.219 0-234.057 8.698-7.512 4.349-18.582 16.605-24.908 26.49-10.28 16.21-11.466 20.954-11.466 51.793 0 37.56 5.931 51.793 28.862 68.794 11.070 8.303 15.024 8.303 234.057 9.489 189.776 0.791 223.382 1.977 227.336 6.721 2.768 3.163 3.954 8.698 2.372 11.861-1.977 5.14-29.653 5.931-224.568 5.931-183.055-0.395-224.964-1.186-235.639-5.931zM565.375 625.52c13.047-7.117 28.071-7.512 230.499-8.698l216.266-1.186v-481.952l-222.987 0.791c-217.452 1.186-223.382 1.581-234.057 9.093-5.931 4.349-13.838 14.233-17.792 21.745-7.117 13.047-7.512 27.676-7.512 250.663v237.22l11.070-10.28c5.931-5.535 17.001-13.442 24.513-17.396zM566.956 732.664c-1.581-3.163-1.581-8.698 0-11.861 3.163-9.093 398.134-9.093 405.646 0 3.954 4.744 3.954 7.117 0 11.861-7.512 9.093-402.483 9.093-405.646 0zM14.233 499.002c-6.721-17.396-5.14-17.396 216.661-16.605l209.94 1.186v19.768l-211.917 1.186c-193.334 0.791-212.312 0.395-214.684-5.535zM75.91 381.974c-7.117-7.117-5.931-14.233 2.768-18.978 5.14-2.372 68.794-3.954 179.101-3.954 143.518 0 172.775 0.791 179.497 5.535 5.931 4.744 6.721 7.117 3.163 13.047-3.954 6.721-15.419 7.117-181.869 8.303-135.215 0.791-179.101-0.395-182.659-3.954zM134.425 262.178c-3.954-4.744-3.954-7.117 0-11.861 4.349-5.14 26.49-5.931 154.193-5.931s149.844 0.791 154.193 5.931c3.954 4.744 3.954 7.117 0 11.861-4.349 5.14-26.49 5.931-154.193 5.931s-149.844-0.791-154.193-5.931z" horiz-adv-x="1095" />
<glyph unicode="&#xe60e;" d="M751.991-56.627h-480.017c-8.021 0-14.985 5.666-16.691 13.517l-80.009 375.467c-1.058 5.052 0.205 10.342 3.482 14.336 3.243 3.994 8.090 6.349 13.278 6.349h640c5.154 0 10.035-2.321 13.278-6.349 3.277-4.062 4.506-9.25 3.482-14.336l-80.043-375.467c-1.741-7.851-8.704-13.517-16.759-13.517zM285.798-22.494h452.369l72.738 341.333h-597.845l72.738-341.333zM798.242 216.439h-580.267c-9.387 0-17.067 7.646-17.067 17.067s7.68 17.067 17.067 17.067h580.267c9.421 0 17.067-7.646 17.067-17.067s-7.646-17.067-17.067-17.067zM491.042 660.173h34.133v-238.933h-34.133v238.933zM494.831 346.59c-48.572 0-89.737 17.067-119.057 49.391-30.14 33.314-45.363 81.647-40.653 129.331 0.887 9.079 9.045 15.77 17.852 15.394 60.348-3.106 110.729-24.781 141.926-60.962 26.795-31.061 38.605-71.509 34.202-116.941-0.785-8.192-7.305-14.677-15.531-15.394-6.417-0.614-12.663-0.819-18.739-0.819zM368.435 505.139c0.683-32.495 12.322-63.829 32.631-86.187 22.869-25.19 54.921-38.263 94.822-38.195 0.137 30.071-8.875 55.876-26.829 76.732-22.153 25.668-57.481 42.291-100.625 47.65zM511.488 643.482c-53.521 0-97.109 43.554-97.109 97.075s43.554 97.041 97.109 97.041c53.487 0 97.075-43.52 97.075-97.041s-43.554-97.075-97.075-97.075zM511.488 803.499c-34.748 0-62.976-28.228-62.976-62.908 0-34.714 28.228-62.942 62.976-62.942 34.714 0 62.942 28.228 62.942 62.942 0 34.679-28.228 62.908-62.942 62.908zM626.381 856.644c-2.526 0-5.154 0.58-7.646 1.809-8.431 4.233-11.81 14.473-7.578 22.938 6.349 12.629 1.263 28.092-11.332 34.406-12.629 6.349-28.058 1.195-34.441-11.366-4.267-8.431-14.541-11.776-22.903-7.543-8.431 4.267-11.81 14.507-7.543 22.903 14.814 29.355 50.79 41.267 80.213 26.522 29.423-14.78 41.301-50.79 26.487-80.282-3.004-5.939-9.011-9.387-15.258-9.387zM686.66 707.55c-8.26 0-15.531 6.007-16.862 14.404-1.434 9.318 4.915 18.057 14.234 19.524 13.961 2.185 23.518 15.292 21.402 29.218-2.15 13.961-15.189 23.552-29.252 21.402-9.318-1.434-17.988 4.949-19.422 14.234-1.434 9.318 4.949 18.022 14.268 19.49 32.393 5.052 63.113-17.374 68.198-49.903 5.018-32.495-17.34-63.078-49.835-68.198-0.956-0.102-1.843-0.171-2.731-0.171zM621.534 550.229c-1.741 0-3.516 0.068-5.222 0.239-15.906 1.365-30.31 8.841-40.55 21.060-6.076 7.202-5.12 17.988 2.082 24.064s17.954 5.12 24.064-2.082c4.403-5.222 10.615-8.431 17.374-9.011 6.997-0.58 13.483 1.502 18.705 5.905 10.752 9.114 12.151 25.327 3.106 36.113-6.11 7.202-5.154 17.954 2.082 24.030 7.202 6.11 17.988 5.12 24.030-2.082 21.197-25.156 17.954-62.942-7.168-84.173-10.991-9.148-24.474-14.063-38.502-14.063zM340.992 673.451c-31.812 0-58.3 25.156-59.699 57.139-0.683 15.974 4.881 31.232 15.667 42.974 10.752 11.776 25.532 18.603 41.472 19.285 9.728 0.41 17.374-6.929 17.783-16.35 0.444-9.421-6.929-17.374-16.35-17.783-6.827-0.273-13.141-3.209-17.783-8.26-4.608-5.052-7.031-11.605-6.69-18.466 0.614-14.063 12.8-24.849 26.658-24.439 9.25 0.41 17.408-6.929 17.783-16.35s-6.929-17.374-16.35-17.783c-0.819 0.034-1.638 0.034-2.492 0.034zM381.303 841.728c-5.53 0-10.923 2.662-14.199 7.612-8.875 13.244-12.049 29.184-8.909 44.851 3.106 15.633 12.117 29.15 25.429 37.99 13.278 8.875 29.218 12.015 44.817 8.909 15.667-3.14 29.15-12.186 37.99-25.498 5.222-7.851 3.106-18.432-4.745-23.654s-18.432-3.106-23.654 4.745c-3.789 5.7-9.591 9.557-16.316 10.923-6.69 1.331-13.517-0.034-19.217-3.823-5.7-3.823-9.557-9.591-10.923-16.316-1.331-6.724 0-13.517 3.823-19.217 5.257-7.817 3.14-18.432-4.71-23.654-2.833-1.946-6.144-2.867-9.387-2.867z" />
<glyph unicode="&#xe60f;" d="M1006.933 21.333h-989.867c-9.421 0-17.067 7.68-17.067 17.067v819.2c0 9.421 7.646 17.067 17.067 17.067h989.867c9.387 0 17.067-7.646 17.067-17.067v-819.2c0-9.387-7.68-17.067-17.067-17.067zM34.133 55.467h955.733v785.067h-955.733v-785.067zM989.867 669.867h-955.733c-9.421 0-17.067 7.646-17.067 17.067s7.646 17.067 17.067 17.067h955.733c9.387 0 17.067-7.646 17.067-17.067s-7.68-17.067-17.067-17.067zM736.393 128c-20.651 0-40.858 3.413-58.061 10.991-30.071 13.38-46.865 38.332-47.241 70.349-0.307 24.508 8.499 45.158 26.18 61.372 53.214 48.913 172.271 37.751 177.289 37.274l-3.379-33.963c-30.106 2.901-116.019 3.55-150.869-28.467-10.342-9.455-15.258-21.197-15.053-35.772 0.239-18.671 9.079-31.607 26.999-39.561 39.526-17.613 108.134-3.857 134.451 19.251l22.528-25.668c-23.893-20.924-69.359-35.806-112.845-35.806zM183.706 108.237c-1.98 0-4.028 0.375-5.973 1.092-8.841 3.345-13.312 13.141-10.001 22.016l160.461 428.373c3.311 8.806 13.107 13.312 21.982 9.967 8.841-3.311 13.312-13.141 10.001-21.982l-160.461-428.373c-2.594-6.861-9.114-11.093-16.009-11.093zM516.745 108.237c-6.929 0-13.414 4.233-15.974 11.093l-160.495 428.373c-3.311 8.841 1.161 18.671 10.001 21.982 8.841 3.277 18.671-1.195 21.982-9.967l160.495-428.373c3.345-8.875-1.126-18.671-9.967-22.016-2.048-0.717-4.062-1.092-6.042-1.092zM273.067 362.667h170.667v-34.133h-170.667v34.133zM836.267 140.8c-9.387 0-17.067 7.68-17.067 17.067v197.12c-5.12 11.469-13.278 19.081-24.576 23.177-39.322 14.268-108.066-15.599-131.243-28.331-8.158-4.54-18.603-1.536-23.177 6.69-4.54 8.26-1.536 18.671 6.69 23.211 3.925 2.185 97.212 53.009 159.3 30.549 21.709-7.817 37.171-23.245 45.943-45.67 0.785-1.98 1.195-4.096 1.195-6.212v-200.533c0-9.387-7.68-17.067-17.067-17.067zM136.158 763.733c0-11.785-9.549-21.333-21.333-21.333s-21.333 9.549-21.333 21.333c0 11.785 9.549 21.333 21.333 21.333s21.333-9.549 21.333-21.333zM221.491 763.733c0-11.785-9.549-21.333-21.333-21.333s-21.333 9.549-21.333 21.333c0 11.785 9.549 21.333 21.333 21.333s21.333-9.549 21.333-21.333zM306.825 763.733c0-11.785-9.549-21.333-21.333-21.333s-21.333 9.549-21.333 21.333c0 11.785 9.549 21.333 21.333 21.333s21.333-9.549 21.333-21.333z" />
<glyph unicode="&#xe610;" d="M512-59.733v0c-5.359 0-10.411 2.526-13.619 6.793-14.097 18.637-344.781 458.615-344.781 652.698 0 196.267 160.768 355.977 358.4 355.977s358.4-159.71 358.4-355.977c0-196.779-330.752-634.231-344.883-652.766-3.14-4.233-8.158-6.724-13.517-6.724zM512.034 921.6c-178.79 0-324.267-144.384-324.267-321.843 0-161.485 261.188-527.667 324.267-613.786 63.215 85.777 324.267 450.082 324.267 613.786 0 177.459-145.51 321.843-324.267 321.843z" />
<glyph unicode="&#xe611;" d="M238.933-59.733c-2.833 0-5.7 0.717-8.294 2.15-5.427 2.97-8.772 8.704-8.772 14.916v981.333c0 9.421 7.646 17.067 17.067 17.067h546.133c9.387 0 17.067-7.646 17.067-17.067v-642.492c0-5.905-3.038-11.401-8.055-14.473l-546.133-338.842c-2.765-1.741-5.871-2.594-9.011-2.594zM256 921.6v-933.615l512 317.679v615.936h-512zM410.795 540.297c-3.55 0-7.066 1.092-10.069 3.277-5.939 4.335-8.465 12.049-6.178 19.046l31.437 96.939-82.364 60.553c-5.939 4.369-8.431 12.049-6.11 19.081s8.841 11.742 16.247 11.742h101.683l31.403 95.369c4.642 13.995 27.785 13.995 32.427 0l31.437-95.369h101.683c7.407 0 13.926-4.745 16.247-11.742 2.287-7.031-0.171-14.711-6.11-19.081l-82.364-60.587 31.403-96.256c2.253-7.031-0.171-14.711-6.11-19.081-5.973-4.369-13.995-4.437-20.002-0.137l-82.398 58.641-82.364-59.221c-2.901-2.116-6.383-3.174-9.899-3.174zM405.811 716.8l50.381-37.001c5.939-4.335 8.397-12.015 6.144-19.012l-19.251-59.187 50.039 35.977c5.939 4.267 13.892 4.267 19.866 0.034l50.108-35.669-19.183 58.743c-2.287 6.997 0.137 14.677 6.11 19.046l50.415 37.069h-61.986c-7.373 0-13.892 4.745-16.247 11.742l-19.081 57.924-19.115-57.89c-2.321-6.997-8.841-11.742-16.213-11.742l-61.986-0.034z" />
<glyph unicode="&#xe612;" d="M96.427 930.133c-2.56-7.68 1.707-20.48 10.24-29.867 14.507-15.36 13.653-18.773-19.627-68.267-49.493-73.387-70.827-136.533-75.947-221.867-5.973-90.453 6.827-152.747 46.080-232.107 61.44-122.88 174.933-206.507 316.587-234.667l69.973-13.653v-159.573h-76.8c-70.827 0-76.8-0.853-76.8-17.067s5.973-17.067 170.667-17.067c164.693 0 170.667 0.853 170.667 17.067s-5.973 17.067-76.8 17.067h-76.8v162.133l23.893 4.267c107.52 22.187 169.813 48.64 226.987 95.573l24.747 20.48 19.627-18.773c18.773-17.92 37.547-16.213 37.547 3.413 0 5.12-23.040 33.28-51.2 61.44l-52.053 52.053 17.92 23.040c9.387 11.947 28.16 44.373 40.96 71.68 20.48 43.52 23.040 59.733 23.040 134.827 0 78.507-2.56 90.453-27.307 142.507-92.16 194.56-341.333 261.973-509.44 136.533l-32.427-23.893-52.053 53.76c-53.76 56.32-63.147 61.44-71.68 40.96zM581.973 855.040c65.707-32.427 114.347-81.92 145.92-149.333 23.040-49.493 27.307-66.56 27.307-125.44s-4.267-75.947-27.307-125.44c-31.573-67.413-80.213-116.907-145.92-149.333-42.667-21.333-58.027-23.893-129.707-23.893-69.973 0-87.893 3.413-129.707 23.040-91.307 42.667-152.747 126.293-171.52 232.107-7.68 44.373-6.827 64 5.12 112.64 25.6 101.547 87.040 173.227 184.32 214.187 69.12 29.013 172.373 25.6 241.493-8.533zM175.787 831.147l19.627-18.773-24.747-35.84c-100.693-146.773-69.973-354.987 69.12-465.067 63.147-50.347 125.44-70.827 212.48-70.827 81.067 0 132.267 15.36 197.12 59.733l37.547 25.6 19.627-23.893 18.773-23.040-26.453-23.040c-90.453-75.093-244.053-102.4-368.64-64-234.667 72.533-353.28 347.307-244.053 565.76 23.893 48.64 55.467 91.307 66.56 91.307 1.707 0 12.8-8.533 23.040-17.92z" horiz-adv-x="819" />
<glyph unicode="&#xe613;" d="M936.653 74.65h-853.333c-27.648 0-53.453 22.153-62.805 54.033-12.459 42.325 7.543 85.333 53.555 114.995l298.701 191.010c7.919 5.052 18.5 2.765 23.586-5.188 5.018-7.885 2.765-18.5-5.188-23.552l-298.667-190.942c-46.899-30.276-43.076-63.659-39.253-76.629 5.427-18.5 19.558-29.525 30.071-29.525h853.333c11.742 0 28.331 13.449 34.202 33.382 4.54 15.394 5.734 45.329-36.932 72.875l-440.149 232.823c-5.598 2.97-9.079 8.772-9.079 15.087v128c0 9.421 7.646 17.067 17.067 17.067 28.433 0 104.346 43.554 104.346 89.6 0 48.572-42.53 89.6-92.877 89.6s-91.238-40.209-91.238-89.6c0-9.421-7.646-17.067-17.067-17.067s-17.067 7.646-17.067 17.067c0 68.233 56.252 123.733 125.372 123.733 68.813 0 127.010-56.661 127.010-123.733 0-62.874-75.196-110.865-121.412-121.515v-102.878l432.367-228.864c45.397-29.184 64.478-70.793 52.361-111.923-9.694-33.041-38.434-57.856-66.901-57.856z" />
<glyph unicode="&#xe614;" d="M55.747 907.021c-3.163-3.954-3.954-128.494-3.558-465.347l1.186-460.207 181.473-1.186c110.703-0.395 183.055 0.791 185.822 2.768 2.768 2.372 6.721 2.372 10.28 0.395 3.558-2.372 120.982-3.954 286.641-3.954 313.131 0 298.107-1.186 317.084 27.28l9.093 13.442v332.503c0 324.992-0.395 332.899-7.907 345.551-4.349 7.117-13.442 16.21-20.559 20.559-12.652 7.907-18.978 7.907-302.851 7.117l-289.408-1.186v89.353c0 64.049-1.186 90.144-4.744 93.702-7.512 7.512-356.225 6.721-362.551-0.791zM391.413 568.587v-312.34l-154.193 0.791-154.193 1.186v309.572c0 170.008 0 309.968 0 311.154s69.585 1.977 154.193 1.977h154.193v-312.34zM1005.813 687.988c5.931-6.721 6.326-34.792 6.326-335.271v-327.759l-8.303-6.721c-7.907-6.721-27.28-7.117-286.246-7.117h-278.338l-7.907 10.28c-8.303 10.675-8.303 12.652-8.303 331.713s0 321.038 8.303 331.713l7.907 10.28h279.92c266.873 0 280.315-0.395 286.641-7.117zM391.413 119.055v-109.912l-154.193 0.791-154.588 1.186v106.749c0.395 58.514 0.395 107.54 0.395 108.726s69.585 1.977 154.193 1.977h154.193v-109.517zM114.656 561.075c-2.372-4.349-3.954-34.397-3.954-69.585s1.581-65.236 3.954-69.585c3.954-7.117 9.489-7.512 122.564-7.512 73.143 0 119.005 1.581 120.587 3.954 1.186 1.977 2.372 35.188 2.372 73.143s-1.186 71.166-2.372 73.143c-1.581 2.372-47.444 3.954-120.587 3.954-113.075 0-118.61-0.395-122.564-7.512zM331.317 522.329l-1.186-15.024h-185.822l-1.186 15.024-1.186 14.629h190.567l-1.186-14.629zM331.317 461.047l1.186-15.024h-190.171v13.047c0 7.512 1.186 14.629 2.768 16.21 1.581 1.186 43.49 1.977 93.702 1.581l91.33-1.186 1.186-14.629zM473.254 648.451c-5.931-6.721-6.721-31.234-6.721-269.245 0-172.775 1.581-264.5 3.954-269.64 3.954-7.117 11.070-7.512 245.127-7.512 132.053 0 243.151 1.186 246.709 2.372 5.535 2.372 6.326 30.048 6.326 272.803 0 262.919-0.395 270.431-7.512 274.385-5.14 2.372-88.958 3.954-244.732 3.954-224.173 0-237.22-0.395-243.151-7.117zM940.182 378.020l0.791-244.337h-442.811v490.255l440.834-1.977 1.186-243.941zM536.908 576.099c-8.303-4.744-9.093-16.605-1.581-22.931 3.558-3.163 52.979-3.954 174.752-3.558l169.612 1.186 1.186 9.093c3.163 20.954 4.744 20.559-172.775 20.559-104.377 0-166.845-1.581-171.194-4.349zM536.908 477.257c-8.303-4.744-9.093-16.605-1.581-22.931 3.558-3.163 52.979-3.954 174.752-3.558l169.612 1.186 1.186 9.093c3.163 20.954 4.744 20.559-172.775 20.559-104.377 0-166.845-1.581-171.194-4.349zM536.908 378.415c-8.303-4.744-9.093-16.605-1.581-22.931 3.558-3.163 52.979-3.954 174.752-3.558l169.612 1.186 1.186 9.489c2.768 19.768 0 20.164-174.752 20.164-103.191 0-164.868-1.581-169.217-4.349zM540.862 281.155c-9.093-2.372-13.047-15.815-6.721-23.327 3.954-4.744 20.164-5.535 99.632-4.744 86.585 1.186 95.283 1.977 99.237 8.303 3.558 5.931 2.768 8.698-5.14 15.024-8.303 7.117-15.419 7.512-94.888 7.117-47.049-0.395-88.562-1.186-92.12-2.372zM656.704 75.564c-2.372-4.744-2.372-9.884 0-14.233 3.558-5.931 10.675-6.721 51.398-6.721 40.327 0 47.839 0.791 49.816 6.326 1.186 3.558 0.791 9.489-1.581 13.047-3.163 5.14-12.652 6.721-49.816 7.512-40.723 0.791-46.258 0.395-49.816-5.931z" horiz-adv-x="1095" />
<glyph unicode="&#xe615;" d="M931.396-64h-307.2c-9.421 0-17.067 7.68-17.067 17.067v290.133h-170.667v-290.133c0-9.387-7.646-17.067-17.067-17.067h-307.2c-9.421 0-17.067 7.68-17.067 17.067v529.067h-73.796c-7.1 0-13.449 4.369-15.94 10.991-2.526 6.622-0.683 14.097 4.608 18.807l489.165 435.2c6.281 5.598 15.667 5.769 22.153 0.478l119.979-98.475v93.798c0 9.421 7.646 17.067 17.067 17.067h170.667c9.387 0 17.067-7.646 17.067-17.067v-270.063l168.448-161.348c5.018-4.847 6.622-12.22 4.028-18.705-2.628-6.451-8.909-10.684-15.872-10.684h-54.238v-529.067c0-9.387-7.646-17.067-17.067-17.067zM641.263-29.867h273.067v529.067c0 9.421 7.646 17.067 17.067 17.067h28.809l-142.985 137.011c-3.379 3.209-5.222 7.68-5.222 12.322v260.267h-136.533v-112.811c0-6.588-3.755-12.629-9.762-15.428-5.973-2.799-13.039-1.98-18.125 2.219l-136.533 112.094-444.791-395.674h46.046c9.421 0 17.067-7.646 17.067-17.067v-529.067h273.067v290.133c0 9.387 7.646 17.067 17.067 17.067h204.8c9.421 0 17.067-7.68 17.067-17.067v-290.133h-0.102z" />
<glyph unicode="&#xe616;" d="M464.161 925.998c-169.612-28.466-313.131-147.472-374.808-310.758-21.745-58.119-27.676-94.888-27.676-169.217 0.395-64.049 1.186-72.747 12.256-114.656 46.653-177.52 175.147-307.2 352.272-354.644 35.188-9.884 45.072-10.675 117.424-10.675 70.771-0.395 82.632 0.395 114.656 9.093 186.613 49.025 324.201 191.358 361.365 374.808 10.675 51.793 11.861 139.169 2.372 185.032-37.164 179.892-158.937 319.061-326.968 374.017-69.585 22.536-158.542 29.257-230.894 17.001zM617.168 894.369c180.683-30.443 320.642-160.124 367.691-341.202 11.466-43.49 14.233-133.239 5.931-180.287-38.746-220.615-224.568-377.575-447.16-377.575-115.447 0-224.173 43.49-308.781 123.354-185.822 175.543-190.567 466.533-10.28 647.215 103.981 104.772 250.267 152.612 392.599 128.494zM511.605 719.222c-43.095-19.373-56.933-75.91-28.862-115.052 21.745-30.048 61.677-39.537 96.865-22.931 55.747 26.094 55.351 111.098-0.395 137.192-21.745 10.28-46.258 10.675-67.608 0.791zM565.375 689.174c16.21-8.303 23.722-20.954 23.722-39.932 0-39.141-48.63-59.7-74.724-31.629-35.188 37.164 5.931 94.888 51.002 71.561zM477.208 502.165c-5.931-6.721-6.721-22.141-6.721-141.937 0-125.331 0.395-134.82 7.117-140.751 6.326-5.931 17.792-6.721 76.701-6.721 62.073 0 69.98 0.791 75.515 7.117 5.931 6.721 6.721 22.141 6.721 141.937 0 125.331-0.395 134.82-7.117 140.751-6.326 5.931-17.792 6.721-76.701 6.721-62.073 0-69.98-0.791-75.515-7.117zM600.958 361.019v-112.68h-94.888v225.359h94.888v-112.68z" horiz-adv-x="1095" />
<glyph unicode="&#xe617;" d="M589.414 203.878h-136.533c-9.421 0-17.067 7.68-17.067 17.067v273.067c0 9.421 7.646 17.067 17.067 17.067h136.533c9.421 0 17.067-7.646 17.067-17.067v-273.067c0-9.421-7.646-17.067-17.067-17.067zM469.948 238.012h102.4v238.933h-102.4v-238.933zM512.205 577.911c-44.817 0-81.306 36.489-81.306 81.306s36.454 81.306 81.306 81.306 81.34-36.489 81.34-81.306-36.489-81.306-81.34-81.306zM512.205 706.423c-26.044 0-47.172-21.163-47.172-47.172s21.129-47.172 47.172-47.172 47.206 21.163 47.206 47.172c0 26.010-21.163 47.172-47.206 47.172zM512-59.733c-279.927 0-507.733 227.806-507.733 507.733 0 279.996 227.806 507.733 507.733 507.733 279.962 0 507.733-227.738 507.733-507.733 0-279.927-227.738-507.733-507.733-507.733zM512 921.6c-261.12 0-473.6-212.446-473.6-473.6 0-261.12 212.48-473.6 473.6-473.6s473.6 212.48 473.6 473.6c0 261.154-212.446 473.6-473.6 473.6z" />
<glyph unicode="&#xe618;" d="M910.134 789.202c-2.768-2.768-4.744-7.512-4.744-11.070 0-13.838 8.303-15.815 64.049-15.815h54.561v-52.979c0-45.863 0.791-54.165 7.512-62.073 6.326-8.303 8.698-8.698 17.792-4.349l10.28 4.744v68.398c0 47.839-1.581 69.98-4.744 73.143-6.721 6.721-137.983 6.721-144.704 0zM29.653 780.899c-1.186-2.768-1.581-35.978-1.186-73.538 1.186-60.491 1.977-69.189 8.303-73.143 4.744-3.163 8.698-3.163 13.838 0 5.535 3.954 7.117 12.652 8.698 61.282l1.977 56.933 56.933 1.977c48.63 1.581 57.328 3.163 61.282 9.093 3.163 4.744 3.163 8.698 0 13.838-3.954 5.931-12.652 6.721-76.306 7.907-56.142 0.791-72.352 0-73.538-4.349zM350.69 661.893c-39.141-10.675-66.026-45.072-66.026-85.004 0.395-28.466 10.28-50.212 31.629-68.794 37.164-31.629 83.422-29.653 119.005 5.14 28.862 27.676 35.188 64.049 17.792 101.214-18.187 39.141-60.491 58.514-102.4 47.444zM392.599 626.31c21.35-8.698 34.397-27.676 34.397-49.025 0-32.815-22.141-56.142-53.375-56.142-30.443 0-54.165 23.327-54.165 53.375 0 22.931 11.070 40.723 30.443 49.816 18.978 8.698 26.094 9.093 42.7 1.977zM694.659 661.893c-39.537-10.675-66.026-45.072-66.026-86.19 0-28.071 8.698-47.444 31.234-67.608 35.583-32.025 84.213-29.653 119.796 5.535 64.049 64.049 2.768 171.589-85.004 148.263zM736.568 626.31c20.559-8.698 31.234-23.327 33.606-45.072 6.721-70.771-93.307-83.422-107.935-13.838-4.349 20.954 9.884 47.049 30.443 56.537 20.164 9.093 26.885 9.489 43.886 2.372zM520.698 381.183c-23.722-6.326-36.769-15.815-52.188-37.56-15.815-22.141-18.978-62.073-6.721-86.19 29.653-57.724 98.446-69.585 143.123-24.908 64.84 64.445 3.558 171.985-84.213 148.658zM562.607 345.6c20.559-8.698 31.234-23.327 33.606-45.072 6.721-70.771-93.307-83.422-107.935-13.838-4.349 20.954 9.884 47.049 30.443 56.537 20.164 9.093 26.885 9.489 43.886 2.372zM32.42 255.456c-3.163-3.163-4.744-25.699-4.744-75.12v-70.375l10.28-3.954c5.535-2.372 36.374-3.954 68.003-3.954 61.677 0 75.91 3.558 75.91 19.373 0 13.442-9.489 15.815-65.631 17.001l-54.956 1.186-1.186 54.956c-0.395 32.42-2.768 57.328-5.535 60.491-5.14 6.326-15.815 6.721-22.141 0.395zM1030.326 251.503c-5.14-7.117-6.326-20.164-6.326-61.282v-52.584h-54.561c-57.724 0-64.049-1.977-64.049-18.582 0-14.233 13.838-17.001 78.283-17.001 81.050 0 75.91-5.535 75.91 81.050 0 64.049-0.395 69.189-7.512 73.143-11.070 5.931-15.024 5.14-21.745-4.744z" horiz-adv-x="1095" />
<glyph unicode="&#xe619;" d="M756.053-64h-496.333c-64.478 0-123.187 60.928-123.187 127.829v752.094c0 30.549 17.067 60.757 44.544 78.78l97.86 62.601c2.765 1.775 5.939 2.697 9.216 2.697h582.246c9.421 0 17.067-7.646 17.067-17.067v-852.036c0-2.97-0.717-5.871-2.219-8.431l-56.252-98.987c-8.26-12.493-31.403-47.479-72.943-47.479zM293.137 925.867l-93.491-59.836c-17.783-11.674-28.979-30.925-28.979-50.108v-752.094c0-48.162 43.281-93.696 89.054-93.696h496.333c16.009 0 29.491 9.626 43.759 31.198l53.521 94.071v830.464h-560.196zM665.6 499.2c-4.062 0-8.055 1.434-11.23 4.233l-74.103 64.819-74.103-64.819c-5.018-4.403-12.22-5.461-18.295-2.697s-10.001 8.841-10.001 15.531v307.2c0 9.421 7.646 17.067 17.067 17.067s17.067-7.646 17.067-17.067v-269.585l57.037 49.903c6.417 5.632 16.043 5.632 22.46 0l57.037-49.903v269.585c0 9.421 7.646 17.067 17.067 17.067s17.067-7.646 17.067-17.067v-307.2c0-6.69-3.925-12.766-10.001-15.531-2.253-1.024-4.676-1.536-7.066-1.536zM819.2-29.867h-34.133v853.333h-614.4v34.133h631.467c9.421 0 17.067-7.646 17.067-17.067v-870.4z" />
<glyph unicode="&#xe61a;" d="M742.4-64h-460.8c-79.974 0-145.067 65.058-145.067 145.067v256c0 80.009 65.092 145.067 145.067 145.067h460.8c79.974 0 145.067-65.058 145.067-145.067v-256c0-80.009-65.092-145.067-145.067-145.067zM281.6 448c-61.167 0-110.933-49.766-110.933-110.933v-256c0-61.167 49.766-110.933 110.933-110.933h460.8c61.167 0 110.933 49.766 110.933 110.933v256c0 61.167-49.766 110.933-110.933 110.933h-460.8zM733.867 465.067c-9.387 0-17.067 7.646-17.067 17.067v283.546c0 100.284-93.082 160.188-183.023 160.188h-27.238c-96.256 0-199.339-64.375-199.339-160.188v-283.546c0-9.421-7.68-17.067-17.067-17.067-9.421 0-17.067 7.646-17.067 17.067v283.546c0 116.224 120.73 194.321 233.472 194.321h27.238c121.754 0 217.156-85.367 217.156-194.321v-283.546c0-9.421-7.68-17.067-17.067-17.067zM529.067 72.533h-34.133c-28.228 0-51.2 22.972-51.2 51.2v77.653c-21.811 19.49-34.133 46.729-34.133 75.947 0 56.457 45.943 102.4 102.4 102.4s102.4-45.943 102.4-102.4c0-29.184-12.322-56.388-34.133-75.947v-77.653c0-28.228-22.972-51.2-51.2-51.2zM512 345.6c-37.649 0-68.267-30.583-68.267-68.267 0-21.333 9.967-41.097 27.375-54.272 4.267-3.277 6.758-8.26 6.758-13.585v-85.743c0-9.387 7.646-17.067 17.067-17.067h34.133c9.387 0 17.067 7.68 17.067 17.067v85.743c0 5.325 2.492 10.411 6.758 13.585 17.408 13.21 27.375 32.939 27.375 54.272 0 37.683-30.583 68.267-68.267 68.267z" />
<glyph unicode="&#xe61b;" d="M866.918 254.601c-6.246 0-12.186 3.413-15.189 9.318-4.267 8.397-0.922 18.671 7.475 22.938 77.858 39.595 94.208 142.677 94.208 222.071 0 9.421 7.714 17.067 17.067 17.067 33.075 0 53.521 13.278 53.521 25.6v85.333c0 18.125 0 25.6-51.2 25.6-9.387 0-17.067 7.646-17.067 17.067v85.333c0 57.446-13.653 97.826-40.653 120.047-28.331 23.279-72.738 28.638-135.68 16.282-9.284-1.809-18.227 4.233-20.036 13.483s4.233 18.227 13.483 20.036c73.626 14.438 127.249 6.758 163.874-23.415 35.26-29.013 53.18-78.268 53.18-146.398v-68.71c56.934-3.243 68.267-23.825 68.267-59.29v-85.333c0-30.652-28.911-53.862-70.758-58.778-2.389-86.426-24.883-191.795-112.64-236.373-2.56-1.263-5.154-1.877-7.851-1.877zM1208.252 254.601c-6.246 0-12.186 3.413-15.189 9.318-4.267 8.397-0.922 18.671 7.475 22.938 81.988 41.711 94.208 157.423 94.208 222.72 0 4.574 1.877 8.943 5.052 12.151 3.277 3.209 7.851 4.71 12.186 4.915 20.548-0.273 38.81 4.881 47.923 13.926 3.55 3.516 5.359 7.202 5.359 11.059v85.333c0 18.125 0 25.6-51.2 25.6-9.421 0-17.067 7.646-17.067 17.067v85.333c0 57.446-13.687 97.826-40.687 120.047-28.331 23.279-72.602 28.638-135.646 16.316-9.25-1.809-18.261 4.233-20.070 13.483-1.843 9.25 4.267 18.227 13.517 20.036 73.626 14.438 127.283 6.758 163.942-23.415 35.26-29.013 53.146-78.268 53.146-146.398v-68.71c56.934-3.243 68.267-23.825 68.267-59.29v-85.333c0-13.141-5.325-25.361-15.531-35.396-12.868-12.732-32.119-20.651-55.262-23.006-2.389-86.665-24.917-192.205-112.606-236.817-2.526-1.263-5.12-1.877-7.817-1.877zM451.891 235.895c-122.778 0-215.825 132.471-223.334 256.99-53.419 6.69-57.89 45.943-57.89 58.743v85.333c0 24.337 21.436 43.042 34.133 51.985v76.015c0 101.751 60.279 144.009 207.701 145.067 60.553 43.725 118.886 53.009 157.559 53.009 74.172 0 138.172-33.417 163.021-85.197 18.295-38.059 12.493-80.043-16.316-118.716v-70.212c12.698-8.943 34.133-27.648 34.133-51.985v-85.333c0-26.726-20.855-53.692-66.901-58.846-8.431-120.081-108.783-256.853-232.107-256.853zM570.061 928.939c-34.475 0-87.040-8.602-141.687-49.596-2.935-2.219-6.519-3.413-10.24-3.413-165.513 0-179.2-52.497-179.2-110.933v-85.333c0-6.144-3.345-11.844-8.704-14.882-10.684-6.042-25.429-19.046-25.429-27.785v-85.333c0-7.646 0-25.6 40.346-25.6 9.421 0 17.067-7.646 17.067-17.067 0-110.455 82.842-238.933 189.679-238.933 110.012 0 198.588 130.731 198.588 238.933 0 9.421 7.646 17.067 17.067 17.067 29.013 0 49.254 10.513 49.254 25.6v85.333c0 8.738-15.019 21.982-25.395 27.785-5.393 3.004-8.738 8.704-8.738 14.882v85.333c0 3.891 1.331 7.646 3.721 10.65 23.689 29.628 29.184 59.87 15.94 87.45-18.944 39.356-72.124 65.843-132.267 65.843zM17.067-67.038c-9.421 0-17.067 7.646-17.067 17.067v46.933c0 120.218 81.203 192 217.225 192h55.057l68.983 99.738c5.359 7.782 15.974 9.694 23.757 4.335 7.748-5.359 9.694-16.043 4.301-23.689l-74.069-107.145c-3.174-4.608-8.431-7.373-14.029-7.373h-64c-116.361 0-183.091-57.583-183.091-157.867v-46.933c0-9.421-7.68-17.067-17.067-17.067zM904.533-67.038c-9.387 0-17.067 7.646-17.067 17.067v46.933c0 116.361-102.025 157.867-197.461 157.867h-64c-5.871 0-11.366 3.038-14.473 8.021l-66.901 107.11c-4.983 7.953-2.56 18.5 5.427 23.484 8.021 4.983 18.5 2.492 23.518-5.461l61.918-99.021h54.545c140.698 0 231.561-75.366 231.561-192v-46.933c0-9.421-7.68-17.067-17.067-17.067zM1245.867-67.038c-9.387 0-17.067 7.646-17.067 17.067v46.933c0 116.361-101.99 157.867-197.461 157.867h-64c-5.871 0-11.332 3.038-14.473 8.021l-66.867 107.11c-4.983 7.953-2.594 18.5 5.393 23.484s18.534 2.492 23.518-5.461l61.884-99.021h54.545c140.663 0 231.526-75.366 231.526-192v-46.933c0.068-9.421-7.612-17.067-16.998-17.067zM1587.2-67.038c-9.387 0-17.067 7.646-17.067 17.067v46.933c0 116.361-101.99 157.867-197.461 157.867h-64c-5.871 0-11.332 3.038-14.473 8.021l-66.867 107.11c-4.983 7.953-2.594 18.5 5.393 23.484s18.534 2.492 23.518-5.461l61.884-99.021h54.545c140.663 0 231.526-75.366 231.526-192v-46.933c0.068-9.421-7.612-17.067-16.998-17.067z" horiz-adv-x="1604" />
<glyph unicode="&#xe61c;" d="M110.933 699.733v-64h853.333v128h-853.333v-64zM110.933 443.733v-64h853.333v128h-853.333v-64zM110.933 187.733v-64h853.333v128h-853.333v-64z" horiz-adv-x="1058" />
<glyph unicode="&#xe61d;" d="M952.457 174.899h-880.879c-39.458 0-71.578 32.085-71.578 71.578v573.679c0 39.458 32.085 71.578 71.578 71.578h880.913c39.424 0 71.509-32.085 71.509-71.578v-573.713c0-39.458-32.051-71.543-71.543-71.543zM71.578 857.566c-20.582 0-37.444-16.794-37.444-37.444v-573.679c0-20.617 16.794-37.444 37.444-37.444h880.879c20.617 0 37.478 16.794 37.478 37.444v573.679c0 20.617-16.794 37.444-37.478 37.444h-880.879zM989.867 755.166h-955.733c-9.421 0-17.067 7.646-17.067 17.067s7.646 17.067 17.067 17.067h955.733c9.421 0 17.067-7.646 17.067-17.067s-7.646-17.067-17.067-17.067zM989.867 277.299h-955.733c-9.421 0-17.067 7.646-17.067 17.067s7.646 17.067 17.067 17.067h955.733c9.421 0 17.067-7.646 17.067-17.067s-7.646-17.067-17.067-17.067zM627.849 4.233c-0.239 0-0.444 0-0.717 0h-254.43c-5.154 0-10.001 2.287-13.278 6.383-3.277 3.994-4.506 9.25-3.482 14.268l36.318 170.667c1.707 7.851 8.704 13.517 16.725 13.517h181.726c8.055 0 15.053-5.632 16.725-13.517l35.328-166.195c1.331-2.355 2.014-5.086 2.014-7.987 0.137-9.489-7.509-17.135-16.93-17.135zM393.83 38.366h212.241l-29.082 136.533h-154.146l-29.013-136.533zM682.667 4.233h-375.467c-9.421 0-17.067 7.646-17.067 17.067s7.646 17.067 17.067 17.067h375.467c9.421 0 17.067-7.646 17.067-17.067s-7.646-17.067-17.067-17.067z" />
<glyph unicode="&#xe61e;" d="M1006.933 260.267h-989.867c-9.421 0-17.067 7.68-17.067 17.067v546.133c0 9.421 7.646 17.067 17.067 17.067h989.867c9.387 0 17.067-7.646 17.067-17.067v-546.133c0-9.387-7.68-17.067-17.067-17.067zM34.133 294.4h955.733v512h-955.733v-512zM836.267 55.467h-648.533c-9.421 0-17.067 7.68-17.067 17.067v67.072c0 9.387 7.646 17.067 17.067 17.067 164.898 0 219.887 92.399 219.887 117.214 0 9.421 7.646 17.067 17.067 17.067s17.067-7.646 17.067-17.067c0-43.11-68.471-144.521-236.954-151.006v-33.28h614.4v33.28c-174.831 6.451-229.717 111.855-229.717 151.006 0 9.421 7.646 17.067 17.067 17.067 9.387 0 17.067-7.646 17.067-17.067 0-25.805 50.893-117.214 212.651-117.214 9.387 0 17.067-7.68 17.067-17.067v-67.072c0-9.387-7.68-17.067-17.067-17.067zM426.667 398.302c-2.935 0-5.905 0.751-8.533 2.287-5.291 3.004-8.533 8.67-8.533 14.78v295.629c0 6.11 3.243 11.742 8.533 14.78 5.257 3.038 11.81 3.038 17.067 0l256-147.797c5.291-3.038 8.533-8.67 8.533-14.78s-3.243-11.742-8.533-14.78l-256-147.831c-2.628-1.536-5.598-2.287-8.533-2.287zM443.733 681.438v-236.476l204.8 118.272-204.8 118.204z" />
<glyph unicode="&#xe61f;" d="M119.467-64c-64.751 0-119.467 60.518-119.467 132.267v682.667c0 43.383 30.686 72.533 76.425 72.533h145.442c9.421 0 17.067-7.646 17.067-17.067v-738.133c0-71.748-54.716-132.267-119.467-132.267zM76.425 789.333c-15.77 0-42.291-4.983-42.291-38.4v-682.667c0-47.411 34.304-98.133 85.333-98.133s85.333 50.722 85.333 98.133v721.067h-128.375zM546.133 618.667h-204.8c-9.421 0-17.067 7.646-17.067 17.067s7.646 17.067 17.067 17.067h204.8c9.387 0 17.067-7.646 17.067-17.067s-7.68-17.067-17.067-17.067zM546.133 755.2h-204.8c-9.421 0-17.067 7.646-17.067 17.067s7.646 17.067 17.067 17.067h204.8c9.387 0 17.067-7.646 17.067-17.067s-7.68-17.067-17.067-17.067zM887.467 755.2h-204.8c-9.387 0-17.067 7.646-17.067 17.067s7.68 17.067 17.067 17.067h204.8c9.387 0 17.067-7.646 17.067-17.067s-7.68-17.067-17.067-17.067zM546.133 482.133h-204.8c-9.421 0-17.067 7.646-17.067 17.067s7.646 17.067 17.067 17.067h204.8c9.387 0 17.067-7.646 17.067-17.067s-7.68-17.067-17.067-17.067zM546.133 345.6h-204.8c-9.421 0-17.067 7.68-17.067 17.067s7.646 17.067 17.067 17.067h204.8c9.387 0 17.067-7.68 17.067-17.067s-7.68-17.067-17.067-17.067zM904.533 345.6h-238.933c-9.387 0-17.067 7.68-17.067 17.067v273.067c0 9.421 7.68 17.067 17.067 17.067h238.933c9.387 0 17.067-7.646 17.067-17.067v-273.067c0-9.387-7.68-17.067-17.067-17.067zM682.667 379.733h204.8v238.933h-204.8v-238.933zM546.133 209.067h-204.8c-9.421 0-17.067 7.68-17.067 17.067s7.646 17.067 17.067 17.067h204.8c9.387 0 17.067-7.68 17.067-17.067s-7.68-17.067-17.067-17.067zM887.467 209.067h-204.8c-9.387 0-17.067 7.68-17.067 17.067s7.68 17.067 17.067 17.067h204.8c9.387 0 17.067-7.68 17.067-17.067s-7.68-17.067-17.067-17.067zM546.133 72.533h-204.8c-9.421 0-17.067 7.68-17.067 17.067s7.646 17.067 17.067 17.067h204.8c9.387 0 17.067-7.68 17.067-17.067s-7.68-17.067-17.067-17.067zM887.467 72.533h-204.8c-9.387 0-17.067 7.68-17.067 17.067s7.68 17.067 17.067 17.067h204.8c9.387 0 17.067-7.68 17.067-17.067s-7.68-17.067-17.067-17.067zM929.724-64h-793.19c-9.421 0-17.067 7.68-17.067 17.067s7.646 17.067 17.067 17.067h793.19c26.999 0 60.143 30.583 60.143 55.467v853.333c0 24.849-33.587 46.933-60.143 46.933h-639.966c-27.068 0-50.825-21.948-50.825-46.933v-806.4c0-9.387-7.646-17.067-17.067-17.067s-17.067 7.68-17.067 17.067v806.4c0 43.93 38.912 81.067 84.958 81.067h640c43.588 0 94.242-35.396 94.242-81.067v-853.333c0-43.52-48.435-89.6-94.276-89.6z" />
<glyph unicode="&#xe620;" d="M259.891 669.867c-5.257 0-10.377 2.458-13.653 6.827l-97.28 129.707v-119.467c0-9.421-7.68-17.067-17.067-17.067-9.421 0-17.067 7.646-17.067 17.067v170.667c0 7.339 4.71 13.858 11.674 16.213 6.997 2.355 14.643-0.102 19.046-5.973l97.28-129.707v119.467c0 9.421 7.646 17.067 17.067 17.067s17.067-7.646 17.067-17.067v-170.667c0-7.339-4.71-13.858-11.674-16.213-1.775-0.58-3.584-0.853-5.393-0.853zM409.225 755.2h-64c-9.421 0-17.067 7.646-17.067 17.067s7.646 17.067 17.067 17.067h64c9.387 0 17.067-7.646 17.067-17.067s-7.646-17.067-17.067-17.067zM409.225 669.867h-64c-9.421 0-17.067 7.646-17.067 17.067v170.667c0 9.421 7.646 17.067 17.067 17.067h64c9.387 0 17.067-7.646 17.067-17.067s-7.68-17.067-17.067-17.067h-46.933v-136.533h46.933c9.387 0 17.067-7.646 17.067-17.067s-7.646-17.067-17.067-17.067zM601.225 669.867c-7.305 0-13.824 4.676-16.213 11.605l-26.453 78.643-26.487-78.643c-2.389-7.134-8.977-11.844-16.862-11.605-7.578 0.307-14.029 5.564-15.872 12.902l-42.667 170.667c-2.253 9.148 3.277 18.432 12.425 20.685 9.114 2.287 18.398-3.277 20.685-12.425l28.535-114.142 24.098 71.441c4.676 13.892 27.682 13.892 32.29 0l24.064-71.441 28.535 114.142c2.253 9.148 11.537 14.746 20.685 12.425 9.148-2.287 14.711-11.571 12.39-20.685l-42.667-170.667c-1.843-7.373-8.26-12.629-15.872-12.902-0.171 0-0.41 0-0.614 0zM792.917 669.867h-63.727c-9.421 0-17.067 7.646-17.067 17.067s7.646 17.067 17.067 17.067h63.727c2.458 0 4.54 2.048 4.54 4.54v28.194c0 10.172-8.294 18.5-18.5 18.5h-14.234c-29.047 0-52.634 23.586-52.634 52.634v15.121c0 28.535 23.211 51.746 51.746 51.746h48.947c9.387 0 17.067-7.646 17.067-17.067s-7.68-17.067-17.067-17.067h-48.947c-9.694 0-17.613-7.885-17.613-17.613v-15.121c0-10.172 8.294-18.5 18.5-18.5h14.234c29.013 0 52.634-23.586 52.634-52.634v-28.194c0-21.333-17.374-38.673-38.673-38.673zM904.533 38.4h-853.333c-9.421 0-17.067 7.68-17.067 17.067v887.467c0 9.421 7.646 17.067 17.067 17.067h853.333c9.387 0 17.067-7.646 17.067-17.067v-887.467c0-9.387-7.68-17.067-17.067-17.067zM68.267 72.533h819.2v853.333h-819.2v-853.333zM972.8-64h-840.909c-58.47 0-97.758 57.412-97.758 110.933v25.6c0 9.387 7.646 17.067 17.067 17.067s17.067-7.68 17.067-17.067v-25.6c0-37.103 25.566-76.8 63.625-76.8h823.842v853.333h-34.133c-9.387 0-17.067 7.646-17.067 17.067s7.68 17.067 17.067 17.067h51.2c9.387 0 17.067-7.646 17.067-17.067v-887.467c0-9.387-7.68-17.067-17.067-17.067zM426.667 311.467h-273.067c-9.421 0-17.067 7.68-17.067 17.067v273.067c0 9.421 7.646 17.067 17.067 17.067h273.067c9.421 0 17.067-7.646 17.067-17.067v-273.067c0-9.387-7.646-17.067-17.067-17.067zM170.667 345.6h238.933v238.933h-238.933v-238.933zM785.067 106.667h-238.933c-9.387 0-17.067 7.68-17.067 17.067s7.68 17.067 17.067 17.067h238.933c9.387 0 17.067-7.68 17.067-17.067s-7.68-17.067-17.067-17.067zM409.6 106.667h-238.933c-9.421 0-17.067 7.68-17.067 17.067s7.646 17.067 17.067 17.067h238.933c9.421 0 17.067-7.68 17.067-17.067s-7.646-17.067-17.067-17.067zM785.067 174.933h-238.933c-9.387 0-17.067 7.68-17.067 17.067s7.68 17.067 17.067 17.067h238.933c9.387 0 17.067-7.68 17.067-17.067s-7.68-17.067-17.067-17.067zM409.6 174.933h-238.933c-9.421 0-17.067 7.68-17.067 17.067s7.646 17.067 17.067 17.067h238.933c9.421 0 17.067-7.68 17.067-17.067s-7.646-17.067-17.067-17.067zM409.6 243.2h-238.933c-9.421 0-17.067 7.68-17.067 17.067s7.646 17.067 17.067 17.067h238.933c9.421 0 17.067-7.68 17.067-17.067s-7.646-17.067-17.067-17.067zM785.067 243.2h-238.933c-9.387 0-17.067 7.68-17.067 17.067s7.68 17.067 17.067 17.067h238.933c9.387 0 17.067-7.68 17.067-17.067s-7.68-17.067-17.067-17.067zM785.067 311.467h-238.933c-9.387 0-17.067 7.68-17.067 17.067s7.68 17.067 17.067 17.067h238.933c9.387 0 17.067-7.68 17.067-17.067s-7.68-17.067-17.067-17.067zM785.067 379.733h-238.933c-9.387 0-17.067 7.68-17.067 17.067s7.68 17.067 17.067 17.067h238.933c9.387 0 17.067-7.68 17.067-17.067s-7.68-17.067-17.067-17.067zM785.067 448h-238.933c-9.387 0-17.067 7.646-17.067 17.067s7.68 17.067 17.067 17.067h238.933c9.387 0 17.067-7.646 17.067-17.067s-7.68-17.067-17.067-17.067zM785.067 516.267h-238.933c-9.387 0-17.067 7.646-17.067 17.067s7.68 17.067 17.067 17.067h238.933c9.387 0 17.067-7.646 17.067-17.067s-7.68-17.067-17.067-17.067zM785.067 584.533h-238.933c-9.387 0-17.067 7.646-17.067 17.067s7.68 17.067 17.067 17.067h238.933c9.387 0 17.067-7.646 17.067-17.067s-7.68-17.067-17.067-17.067z" />
<glyph unicode="&#xe621;" d="M524.39 61.201h-42.667c-1.468 0-2.97 0.205-4.403 0.614-121.856 32.461-354.065 71.27-451.243 10.547-5.257-3.311-11.878-3.482-17.306-0.478s-8.806 8.738-8.806 14.95v682.667c0 5.871 3.038 11.366 8.021 14.473 110.694 69.222 392.602 64.546 529.067-8.772 5.53-2.97 9.045-8.772 9.045-14.985v-562.449c0-9.387-7.646-17.067-17.067-17.067s-17.067 7.68-17.067 17.067v551.936c-134.758 66.389-381.372 61.884-477.867 9.933v-645.018c140.049 58.47 408.474-8.397 449.843-19.251h38.229c94.003 24.883 315.87 72.602 467.695 16.998v646.554c-100.318 47.957-274.33 55.706-386.867 16.247-8.875-3.174-18.671 1.536-21.777 10.445-3.14 8.909 1.536 18.671 10.445 21.777 125.815 44.134 315.665 33.894 423.219-22.801 5.598-2.935 9.114-8.772 9.114-15.087v-682.667c0-5.837-2.935-11.264-7.851-14.404-4.949-3.106-11.127-3.55-16.384-1.058-142.404 66.731-376.73 15.531-470.835-9.557-1.57-0.41-3.072-0.614-4.54-0.614z" />
<glyph unicode="&#xe622;" d="M79.735-1.365c-4.403 0-8.806 1.707-12.083 4.983-5.257 5.257-6.485 13.38-3.072 19.934l131.413 252.143c0.785 1.536 1.877 2.935 3.106 4.198l498.586 498.586c6.656 6.656 17.476 6.656 24.132 0l120.661-120.661c3.209-3.209 4.983-7.543 4.983-12.083s-1.809-8.841-4.983-12.083l-498.654-498.654c-1.195-1.229-2.594-2.253-4.198-3.072l-252.075-131.413c-2.458-1.229-5.154-1.877-7.817-1.877zM225.075 257.57l-105.131-201.66 201.626 105.131 484.762 484.762-96.529 96.529-484.727-484.762zM842.547 633.685l-24.132 24.132 76.732 76.663c35.635 35.669 42.974 86.323 16.35 113.015-26.624 26.624-77.312 19.217-112.947-16.35l-76.663-76.732-24.132 24.132 76.663 76.732c48.981 49.015 121.276 56.252 161.212 16.35 39.936-39.936 32.597-112.265-16.35-161.28l-76.732-76.663zM358.801 184.448l-120.73 120.73 24.158 24.158 120.73-120.73-24.158-24.158z" />
<glyph unicode="&#xe623;" d="M520.124 224.939c-159.778 0-305.254 81.681-389.325 218.385-3.413 5.495-3.413 12.39 0 17.852 84.070 136.704 229.683 218.317 389.325 218.317 159.744 0 305.254-81.613 389.393-218.317 3.379-5.495 3.379-12.39 0-17.852-84.036-136.738-229.615-218.385-389.393-218.385zM165.513 452.267c78.643-121.173 210.364-193.229 354.679-193.229s276.105 72.021 354.679 193.229c-78.609 121.139-210.398 193.126-354.679 193.126-144.282 0.034-276.070-71.987-354.679-193.126zM520.124 320.102c-72.909 0-132.13 59.29-132.13 132.164 0 72.841 59.255 132.13 132.13 132.13s132.164-59.29 132.164-132.13c0-72.875-59.29-132.164-132.164-132.164zM520.124 550.298c-54.033 0-97.997-43.964-97.997-97.997s43.964-98.031 97.997-98.031c54.067 0 98.031 43.998 98.031 98.031s-43.964 97.997-98.031 97.997zM684.134 256.614c-4.608 0-9.216 1.877-12.595 5.53-6.383 6.963-5.905 17.783 1.024 24.132 46.285 42.564 72.909 103.117 72.909 166.025s-26.624 123.494-73.079 166.127c-6.929 6.383-7.407 17.169-0.99 24.098 6.417 6.963 17.169 7.407 24.098 1.024 53.419-49.050 84.105-118.784 84.105-191.249 0-72.499-30.583-142.199-83.934-191.181-3.277-3.004-7.407-4.506-11.537-4.506zM356.352 256.546c-4.13 0-8.26 1.468-11.571 4.471-53.385 49.050-84.105 118.75-84.105 191.283 0 72.465 30.583 142.165 84.002 191.181 6.929 6.383 17.783 5.939 24.132-1.024 6.417-6.929 5.905-17.783-0.99-24.098-46.353-42.598-73.011-103.117-73.011-166.059 0-63.010 26.59-123.563 73.079-166.161 6.963-6.383 7.441-17.169 0.99-24.098-3.277-3.721-7.885-5.495-12.527-5.495zM1006.933-64h-989.867c-9.421 0-17.067 7.68-17.067 17.067v989.867c0 9.421 7.646 17.067 17.067 17.067h989.867c9.421 0 17.067-7.646 17.067-17.067v-989.867c0-9.387-7.646-17.067-17.067-17.067zM34.133-29.867h955.733v955.733h-955.733v-955.733z" />
<glyph unicode="&#xe624;" d="M659.076 876.578c-50.607-7.512-106.354-45.072-127.308-86.19-15.419-31.234-17.792-56.537-17.792-207.568v-142.727l-43.886 46.653c-30.443 32.025-46.258 46.258-52.584 46.258-9.884 0-18.187-6.721-18.187-15.419 0-7.907 126.517-134.82 134.425-134.82 9.489 0 134.425 126.913 134.425 136.797 0 11.070-9.489 18.582-18.978 15.815-3.954-1.186-27.28-23.722-51.793-49.816s-46.258-47.444-48.235-47.444c-2.768 0-3.558 55.747-2.768 155.379 1.186 153.007 1.186 155.379 10.675 175.543 11.070 24.513 40.723 53.77 65.236 64.445 20.164 8.303 56.142 15.815 77.887 15.815 11.070 0 16.21 1.977 19.373 7.512 5.14 9.884 5.14 10.675-2.372 17.792-6.721 6.721-21.35 7.512-58.119 1.977zM198.079 640.939c-3.954-8.303-35.188-75.91-69.189-150.239l-61.677-135.215v-163.682c0-121.773 1.186-164.473 4.744-168.031 5.931-5.931 938.601-6.721 948.090-0.791 5.14 3.163 5.931 26.49 5.931 170.798v167.24l-58.119 141.937c-32.025 77.887-60.491 144.309-62.863 147.076-3.954 4.744-28.071 5.535-139.564 4.744l-134.82-1.186-1.186-9.093c-3.163-20.164-1.581-20.559 131.262-20.559h122.959l15.419-38.746c8.303-20.954 31.234-77.097 50.607-124.541 18.978-47.444 34.792-86.981 34.792-88.167 0-0.791-47.444-1.581-105.168-1.581-62.468 0-107.935-1.581-112.284-3.954-4.744-2.372-11.070-16.21-17.792-37.955-11.466-37.955-30.443-62.468-59.305-77.887-15.024-8.303-22.141-8.698-122.564-9.884-118.215-1.581-138.378 0.791-163.682 18.978-21.35 15.815-33.606 35.188-45.863 73.538-5.535 18.582-12.652 33.606-16.21 34.792s-56.933 2.372-119.005 2.372c-88.562 0-112.284 1.186-110.703 5.14 1.186 2.372 22.141 48.235 46.258 101.609 24.513 53.375 49.421 107.935 55.747 121.773l11.070 24.513h97.26c99.237 0 112.68 1.977 112.68 15.024 0 15.815-5.535 16.605-119.401 16.605h-109.912l-7.512-14.629zM330.131 316.738c8.698-30.839 21.35-51.793 43.49-71.957 36.374-33.606 38.351-34.002 179.892-34.002h124.541l21.745 10.28c39.932 18.978 62.468 44.676 77.887 90.144l8.698 26.094h207.963v-284.664l-895.506-1.977v141.541c0 77.887 1.186 143.123 2.768 144.309 1.186 1.581 51.793 2.768 112.284 2.768h109.912l6.326-22.536z" horiz-adv-x="1095" />
<glyph unicode="&#xe625;" d="M61.677 767.852c-5.14-5.14-6.326-16.605-6.326-65.236 0-33.606 1.977-62.863 3.954-67.212 4.744-8.303 19.768-9.884 26.885-2.768 3.163 3.163 4.744 21.745 4.744 57.328v52.584h52.979c58.91 0 66.817 3.163 58.514 21.745l-4.744 9.884h-64.84c-53.77 0-66.026-1.186-71.166-6.326zM897.483 766.27c-3.163-5.535-3.163-10.28 0-15.815 3.954-7.117 8.303-7.907 57.328-7.907h53.375v-49.816c0-53.77 3.163-64.84 17.792-64.84 5.535 0 11.466 3.163 13.838 7.512 1.977 4.349 3.954 33.211 3.954 65.631s-1.977 61.282-3.954 65.631c-3.954 7.117-9.093 7.512-71.166 7.512-62.863 0-67.212-0.395-71.166-7.907zM527.815 644.893c-103.586-5.14-204.405-35.978-282.292-86.585-39.537-25.699-100.423-85.795-115.052-113.47l-9.884-18.582 9.489-18.187c12.256-22.536 57.328-71.166 86.981-94.097 77.887-59.305 183.45-96.865 295.339-104.772 120.192-8.303 232.080 13.838 332.503 66.422 62.863 33.211 126.122 86.981 154.984 132.448 11.070 18.187 11.466 19.768 6.326 30.443-10.675 20.559-49.421 62.073-81.446 87.771-101.609 81.446-251.453 126.122-396.948 118.61zM650.378 606.147c88.562-13.442 162.1-41.118 229.313-86.19 28.862-19.768 92.911-82.632 92.911-91.725 0-10.28-74.329-82.236-105.958-102.795-93.702-60.096-204.009-88.167-330.922-83.818-92.516 3.163-154.984 18.187-229.708 54.956-51.002 24.908-110.307 73.934-137.983 113.866l-11.070 15.815 10.675 15.024c13.838 20.164 54.165 59.7 81.446 80.259 49.025 37.164 139.564 72.352 215.475 84.213 48.235 7.512 137.192 7.512 185.822 0.395zM519.117 561.47c-26.49-9.489-46.653-25.303-60.886-47.839-15.419-24.117-20.559-45.072-18.187-73.538 5.931-77.887 83.818-127.703 159.333-102.005 29.257 9.884 62.073 44.676 71.166 74.329 17.001 58.91-7.907 117.029-62.073 144.704-23.327 11.466-63.259 13.838-89.353 4.349zM579.212 532.608c10.28-2.768 24.908-11.070 35.188-19.768 54.956-48.235 27.28-138.378-45.467-148.263-57.724-7.907-107.935 46.258-94.888 102.795 7.117 31.629 26.49 52.584 58.91 64.049 18.187 6.326 24.513 6.721 46.258 1.186zM63.259 260.201c-8.698-5.535-11.070-124.936-2.372-136.402 5.14-7.117 11.070-7.907 65.631-9.093 49.421-1.186 61.282-0.395 69.585 5.14 11.070 7.117 12.256 14.629 3.163 23.327-4.744 5.14-16.21 6.326-57.328 6.326h-51.002v49.816c0 27.28-1.977 52.979-3.954 57.328-4.744 7.907-14.233 9.489-23.722 3.558zM1014.511 257.829c-5.14-4.744-6.326-16.21-6.326-57.328v-51.002h-51.002c-41.118 0-52.584-1.186-57.328-6.326-7.907-7.512-7.907-9.884-0.791-19.768 5.14-6.721 11.861-7.512 66.817-8.698 81.841-1.581 77.887-5.535 77.887 74.724 0 33.211-1.977 62.863-3.954 67.212-5.14 9.093-17.001 9.884-25.303 1.186z" horiz-adv-x="1095" />
<glyph unicode="&#xe626;" d="M363.355 826.455c-107.591-32.56-186.868-109.006-219.9-213.294-25.482-79.749-18.876-157.139 19.347-236.888 36.335-75.030 100.984-131.185 184.037-160.442 34.448-11.797 43.414-13.213 101.456-12.741 64.649 0 77.39 2.359 135.904 25.954l15.1 6.606 117.029-116.557c64.177-63.705 123.163-119.388 131.657-123.635 17.46-8.494 55.683-9.91 75.502-2.359 30.673 11.325 57.571 51.436 58.042 85.884 0 34.92-10.853 49.076-132.129 170.824l-117.972 117.972 12.269 30.201c85.412 211.406-69.84 440.273-297.762 438.857-34.448 0-56.627-2.831-82.581-10.382zM509.169 778.323c120.804-28.785 205.272-135.432 205.272-259.539 0-147.701-118.916-266.618-266.146-266.618-72.671 0-134.017 25.482-186.868 77.862-39.639 38.695-63.233 82.109-75.030 136.848-8.494 41.526-8.494 62.289 0 103.816 31.145 148.645 176.487 242.079 322.772 207.631zM934.341 83.701c0-8.494-2.359-20.291-5.191-26.898-7.078-15.1-33.504-27.841-50.492-24.066-8.966 1.888-50.492 40.111-125.523 115.141l-112.782 112.782 65.121 66.065 114.669-114.197c100.984-100.984 114.197-115.613 114.197-128.826z" />
<glyph unicode="&#xe627;" d="M458.625 926.394c-101.214-17.001-195.707-67.212-268.454-142.332-239.988-248.29-156.961-653.937 161.705-789.547 147.472-62.863 319.852-47.049 455.463 41.514 95.283 61.677 162.891 149.844 198.474 257.779 15.419 47.049 22.141 92.516 22.141 150.635 0 83.818-13.047 142.332-48.235 214.684-68.794 141.146-200.846 239.592-357.412 266.873-41.909 7.512-121.378 7.512-163.682 0.395zM613.214 894.369c92.516-15.419 173.961-55.747 241.174-119.005 90.539-85.795 141.937-205.591 141.937-331.713 0-204.405-138.774-385.483-336.062-438.066-127.308-34.397-256.988-14.233-366.505 56.537-106.749 69.189-181.473 180.683-203.219 304.828-7.512 42.7-6.326 125.331 1.977 166.054 37.56 178.31 170.403 314.712 346.341 355.435 18.582 4.349 39.141 8.698 45.467 9.489 29.653 3.954 94.888 2.372 128.89-3.558zM506.86 691.151c-58.91-12.652-107.54-70.375-107.54-128.099 0-59.7 27.28-94.493 114.656-145.495 108.331-63.654 117.424-71.166 121.378-101.214 5.535-41.118-39.141-69.585-93.702-59.305-54.165 9.884-79.864 38.351-92.911 102.005l-4.349 21.745-41.118 2.372v-186.218h21.745c20.559 0 21.745 0.395 21.745 9.884 0 15.024 8.303 15.815 42.304 3.954 41.118-13.838 92.516-17.396 127.308-8.303 68.003 17.396 115.447 78.678 109.912 142.332-5.14 61.282-33.211 91.725-137.192 148.658-90.144 49.421-112.68 71.561-103.191 102.795 11.861 39.141 63.654 51.002 111.098 25.303 32.025-17.396 44.281-39.141 57.328-101.214 1.977-10.28 3.558-11.070 22.931-11.070h20.559l-2.372 185.822h-19.373c-18.187 0-19.373-0.791-21.745-11.861-3.163-14.629-7.117-14.629-43.095-1.581-30.839 11.466-76.306 15.419-104.377 9.489zM464.556 625.52c-18.978-27.676-17.792-57.724 3.163-85.399 14.233-18.978 60.096-50.212 132.053-90.144 57.724-32.025 81.446-54.561 90.539-85.795 3.954-14.233 5.535-28.466 3.954-39.932-3.163-22.931-20.164-53.77-36.374-66.026s-21.35-12.652-10.28-0.791c20.559 21.745 26.094 56.933 13.047 86.585-11.070 25.303-35.978 46.258-95.283 80.655-96.865 55.747-120.982 75.91-130.471 110.703-9.489 33.606 4.349 81.446 28.466 98.446 12.256 8.303 12.256 7.907 1.186-8.303z" horiz-adv-x="1095" />
<glyph unicode="&#xe628;" d="M135.782 172.988c-6.895 0-13.107 4.164-15.77 10.547-2.662 6.417-1.195 13.722 3.686 18.603 16.896 16.93 47.275 58.266 67.925 103.014-102.878 45.5-166.025 125.133-166.025 210.705 0 137.762 160.768 249.822 358.4 249.822s358.4-112.060 358.4-249.822c0-137.728-160.802-249.719-358.4-249.719-12.527 0-24.849 0.58-37.001 1.468-58.607-62.805-129.638-94.618-211.217-94.618zM384.034 731.58c-178.79 0-324.267-96.734-324.267-215.689 0-75.674 61.542-146.876 160.631-185.788 4.233-1.673 7.646-4.983 9.421-9.114 1.775-4.198 1.877-8.875 0.171-13.141-13.995-34.85-35.43-70.656-55.364-97.792 57.958 8.806 109.193 37.82 152.678 86.596 3.584 3.994 8.704 6.144 14.199 5.666 13.961-1.195 28.092-2.048 42.53-2.048 178.756 0 324.267 96.734 324.267 215.62s-145.51 215.689-324.267 215.689zM895.351 130.321c-75.503 0-141.278 29.321-195.584 87.347-11.059-0.785-22.255-1.331-33.655-1.331-78.131 0-153.941 19.149-213.504 53.862-8.158 4.813-10.889 15.189-6.144 23.381 4.745 8.158 15.223 10.889 23.347 6.178 54.443-31.812 124.143-49.254 196.301-49.254 13.312 0 26.317 0.785 39.117 1.946 5.393 0.478 10.684-1.604 14.268-5.598 39.151-43.93 85.197-70.451 137.148-79.121-17.954 24.815-36.932 56.9-49.425 88.132-1.673 4.198-1.604 8.943 0.171 13.107 1.809 4.164 5.188 7.509 9.421 9.114 90.999 35.738 147.49 101.069 147.49 170.428 0 109.124-133.734 197.871-298.155 197.871-9.421 0-17.067 7.646-17.067 17.067s7.646 17.067 17.067 17.067c183.228 0 332.288-104.073 332.288-232.004 0-79.258-58.095-152.917-152.883-195.311 19.012-40.687 46.524-78.165 61.918-93.559 4.881-4.949 6.315-12.186 3.652-18.603-2.662-6.554-8.841-10.718-15.77-10.718z" />
<glyph unicode="&#xe629;" d="M32.017 437.828c-2.697 0-5.461 0.683-8.021 2.048-8.329 4.437-11.469 14.78-7.031 23.108l232.277 435.575c5.973 11.127 24.201 11.127 30.174 0l114.483-214.596c4.437-8.329 1.297-18.637-7.031-23.074-8.397-4.471-18.671-1.263-23.074 7.031l-99.465 186.334-217.259-407.381c-3.072-5.769-8.977-9.045-15.053-9.045zM305.459 547.021h-136.533c-9.387 0-17.067 7.646-17.067 17.067s7.68 17.067 17.067 17.067h136.533c9.421 0 17.067-7.646 17.067-17.067s-7.612-17.067-17.067-17.067zM885.76 444.621h-170.701c-9.387 0-17.067 7.646-17.067 17.067s7.68 17.067 17.067 17.067h170.701c50.859 0 89.19 36.489 89.19 84.924 0 48.879-38.707 85.743-90.010 85.743h-95.983c-9.387 0-17.067 7.646-17.067 17.067s7.68 17.067 17.067 17.067h11.435c47.821 0 85.299 39.151 85.299 89.19 0 49.084-34.27 81.476-85.299 81.476h-119.501v-170.667c0-9.421-7.646-17.067-17.067-17.067-9.387 0-17.067 7.646-17.067 17.067v187.733c0 9.421 7.68 17.067 17.067 17.067h136.567c69.188 0 119.433-48.265 119.433-114.79 0-35.874-13.79-67.584-36.284-90.010h1.331c69.632 0 124.143-52.668 124.143-119.876 0.068-66.731-54.067-119.057-123.255-119.057zM719.462-10.889c-6.827 0-13.278 4.13-15.906 10.82l-126.839 324.608c-3.482 8.772 0.887 18.671 9.66 22.084 8.841 3.482 18.705-0.853 22.118-9.694l126.839-324.574c3.482-8.772-0.922-18.671-9.694-22.084-2.014-0.819-4.062-1.161-6.178-1.161zM518.656 299.657c-91.409 0-171.964 54.989-205.244 140.151-21.436 54.818-20.241 114.688 3.379 168.619s66.833 95.369 121.617 116.804c25.771 10.069 52.736 15.189 80.213 15.189 91.443 0 171.998-54.989 205.278-140.117 44.169-113.186-11.947-241.22-125.030-285.457-25.771-10.069-52.77-15.189-80.213-15.189zM518.622 706.287c-23.177 0-45.978-4.301-67.755-12.834-46.285-18.091-82.842-53.146-102.81-98.714-19.934-45.534-20.958-96.154-2.833-142.507 28.126-71.919 96.188-118.443 173.431-118.443 23.177 0 45.978 4.301 67.789 12.834 95.607 37.342 142.95 145.579 105.643 241.22-28.126 71.953-96.188 118.443-173.466 118.443z" />
<glyph unicode="&#xe62a;" d="M500.93 927.975c-96.469-11.070-190.962-69.189-245.127-151.030-47.839-72.352-67.212-168.822-48.63-243.941 28.862-115.052 133.239-303.642 286.246-516.744 37.56-52.584 43.49-58.119 54.165-54.165 7.117 2.768 84.608 110.703 134.82 187.404 114.656 175.147 185.822 321.829 199.66 410.786 3.163 21.35 3.163 38.746 0 66.026-18.978 160.519-143.123 283.478-304.432 302.060-37.56 4.349-37.955 4.349-76.701-0.395zM608.865 890.811c59.305-13.838 105.563-39.141 148.658-81.050 80.259-78.283 111.493-186.613 82.632-286.641-31.629-108.331-121.773-270.036-260.151-465.347-19.768-28.071-36.769-50.607-38.351-50.607-5.931 0-123.354 173.961-176.729 262.128-44.676 74.329-99.237 185.032-115.447 234.057-37.56 113.075-8.303 225.359 80.259 309.177 41.909 40.327 79.469 60.886 138.774 76.306 34.792 9.489 104.377 10.28 140.355 1.977zM508.837 760.735c-83.422-31.234-107.935-132.448-47.049-194.125 57.328-58.514 154.588-41.909 190.962 32.025 7.512 15.419 9.489 25.699 9.489 49.025 0 48.63-22.536 85.004-66.422 107.54-20.954 10.675-65.631 13.442-86.981 5.535zM572.096 728.71c14.233-4.349 24.513-11.070 35.978-23.327 37.164-40.327 28.862-99.237-17.792-129.285-17.396-11.070-21.35-11.861-47.049-10.675-34.397 1.581-54.956 13.442-71.166 41.118-26.49 45.072-3.163 106.749 46.258 122.168 22.931 7.117 30.048 7.117 53.77 0z" horiz-adv-x="1095" />
<glyph unicode="&#xe62b;" d="M93.702 886.066c-5.14-4.744-3.163-200.846 1.977-205.986 3.163-3.163 18.978-4.744 45.467-4.744h40.723l-0.791-243.941-1.186-244.337-86.981-3.954-1.186-100.423c-0.791-70.771 0.395-102.005 3.558-105.563 3.558-4.349 24.117-5.535 100.819-5.535 81.841 0 96.865 0.791 102.005 6.326 5.14 4.744 6.326 15.024 6.326 47.444v41.118h486.301v-40.723c0-34.792 1.186-41.909 7.117-47.444 6.326-5.931 19.373-6.721 102.795-6.721 94.097 0 95.283 0 101.214 8.698 5.14 7.512 6.326 24.117 6.326 100.028 0 66.817-1.186 93.307-4.744 98.051-4.349 5.14-13.442 6.721-46.653 7.512l-41.514 1.186-1.186 244.337-0.791 243.941h41.118c56.933 0 53.77-6.326 53.77 107.935 0 54.561-1.581 93.307-3.954 98.051-3.954 7.117-9.489 7.512-104.772 7.512s-100.819-0.395-104.772-7.512c-1.977-4.349-3.954-24.908-3.954-45.467v-37.955h-486.301v40.723c0 26.49-1.581 42.304-4.744 45.467-5.14 5.14-201.242 7.117-205.986 1.977zM272.803 784.062v-77.097h-154.193v154.193h154.193v-77.097zM976.556 784.062v-77.097h-154.193v154.193h154.193v-77.097zM790.734 727.92c0-51.793 0.791-52.584 54.165-52.584h40.723l-0.791-243.941-1.186-244.337-41.514-1.186c-33.211-0.791-42.304-2.372-46.653-7.512-3.163-4.349-4.744-20.559-4.744-45.467v-38.746h-486.301v41.118c0 28.862-1.581 42.304-5.14 45.072-2.768 2.372-23.722 5.14-46.653 5.535l-41.118 1.186-1.186 244.337-0.791 243.941h41.118c53.77 0 53.77 0 53.77 51.793v39.141h486.301v-38.351zM272.803 80.309v-77.097h-154.193v154.193h154.193v-77.097zM976.556 80.309v-77.097h-154.193v154.193h154.193v-77.097z" horiz-adv-x="1095" />
<glyph unicode="&#xe62c;" d="M874.667-64h-725.333c-44.715 0-81.067 36.318-81.067 81.067v861.867c0 44.715 36.352 81.067 81.067 81.067h725.333c44.749 0 81.067-36.352 81.067-81.067v-861.867c0-44.749-36.318-81.067-81.067-81.067zM149.333 925.867c-25.873 0-46.933-21.060-46.933-46.933v-861.867c0-25.873 21.060-46.933 46.933-46.933h725.333c25.873 0 46.933 21.060 46.933 46.933v861.867c0 25.873-21.060 46.933-46.933 46.933h-725.333zM546.133 38.4h-102.4c-9.421 0-17.067 7.68-17.067 17.067s7.646 17.067 17.067 17.067h102.4c9.387 0 17.067-7.68 17.067-17.067s-7.68-17.067-17.067-17.067zM836.267 106.667h-648.533c-9.421 0-17.067 7.68-17.067 17.067v716.8c0 9.421 7.646 17.067 17.067 17.067h648.533c9.387 0 17.067-7.646 17.067-17.067v-716.8c0-9.387-7.68-17.067-17.067-17.067zM204.8 140.8h614.4v682.667h-614.4v-682.667zM716.8 721.067h-443.733c-9.421 0-17.067 7.646-17.067 17.067s7.646 17.067 17.067 17.067h443.733c9.387 0 17.067-7.646 17.067-17.067s-7.68-17.067-17.067-17.067zM716.8 584.533h-443.733c-9.421 0-17.067 7.646-17.067 17.067s7.646 17.067 17.067 17.067h443.733c9.387 0 17.067-7.646 17.067-17.067s-7.68-17.067-17.067-17.067zM716.8 448h-443.733c-9.421 0-17.067 7.646-17.067 17.067s7.646 17.067 17.067 17.067h443.733c9.387 0 17.067-7.646 17.067-17.067s-7.68-17.067-17.067-17.067zM512 311.467h-238.933c-9.421 0-17.067 7.68-17.067 17.067s7.646 17.067 17.067 17.067h238.933c9.421 0 17.067-7.68 17.067-17.067s-7.646-17.067-17.067-17.067z" />
<glyph unicode="&#xe62d;" d="M870.4-64h-716.8c-9.421 0-17.067 7.68-17.067 17.067v989.867c0 9.421 7.646 17.067 17.067 17.067h716.8c9.387 0 17.067-7.646 17.067-17.067v-989.867c0-9.387-7.68-17.067-17.067-17.067zM170.667-29.867h682.667v955.733h-682.667v-955.733zM716.8 584.533h-409.6c-9.421 0-17.067 7.646-17.067 17.067s7.646 17.067 17.067 17.067h409.6c9.387 0 17.067-7.646 17.067-17.067s-7.68-17.067-17.067-17.067zM716.8 516.267h-409.6c-9.421 0-17.067 7.646-17.067 17.067s7.646 17.067 17.067 17.067h409.6c9.387 0 17.067-7.646 17.067-17.067s-7.68-17.067-17.067-17.067zM716.8 448h-409.6c-9.421 0-17.067 7.646-17.067 17.067s7.646 17.067 17.067 17.067h409.6c9.387 0 17.067-7.646 17.067-17.067s-7.68-17.067-17.067-17.067zM375.467 755.2h-34.133v46.933l34.133 42.667zM307.2 755.2h-34.133v46.933l34.133 42.667zM648.533 243.2h34.133v-38.4l-34.133-42.667zM716.8 243.2h34.133v-38.4l-34.133-42.667z" />
<glyph unicode="&#xe62e;" d="M597.333 755.2h-170.667c-9.421 0-17.067 7.646-17.067 17.067v170.667c0 9.421 7.646 17.067 17.067 17.067h170.667c9.387 0 17.067-7.646 17.067-17.067v-170.667c0-9.421-7.68-17.067-17.067-17.067zM443.733 789.333h136.533v136.533h-136.533v-136.533zM187.733 345.6h-170.667c-9.421 0-17.067 7.68-17.067 17.067v170.667c0 9.421 7.646 17.067 17.067 17.067h170.667c9.421 0 17.067-7.646 17.067-17.067v-170.667c0-9.387-7.646-17.067-17.067-17.067zM34.133 379.733h136.533v136.533h-136.533v-136.533zM597.333-64h-170.667c-9.421 0-17.067 7.68-17.067 17.067v170.667c0 9.387 7.646 17.067 17.067 17.067h170.667c9.387 0 17.067-7.68 17.067-17.067v-170.667c0-9.387-7.68-17.067-17.067-17.067zM443.733-29.867h136.533v136.533h-136.533v-136.533zM1006.933 345.6h-170.667c-9.387 0-17.067 7.68-17.067 17.067v170.667c0 9.421 7.68 17.067 17.067 17.067h170.667c9.387 0 17.067-7.646 17.067-17.067v-170.667c0-9.387-7.68-17.067-17.067-17.067zM853.333 379.733h136.533v136.533h-136.533v-136.533zM913.408 529.92c-32.734 161.314-158.106 286.686-319.386 319.454l6.793 33.451c174.729-35.533 310.613-171.383 346.078-346.146l-33.485-6.758zM110.592 529.954l-33.451 6.793c35.43 174.455 171.042 310.272 345.463 345.941l6.827-33.417c-161.007-32.905-286.14-158.242-318.839-319.317zM423.219 13.141c-174.455 35.43-310.272 171.076-345.941 345.463l33.417 6.827c32.939-161.007 158.276-286.14 319.283-318.839l-6.758-33.451zM601.429 13.278l-6.827 33.417c161.007 32.939 286.14 158.31 318.805 319.283l33.451-6.793c-35.43-174.421-171.042-310.17-345.429-345.907z" />
<glyph unicode="&#xe62f;" d="M364.578 157.082c-0.717 0-1.502 0.068-2.219 0.137-5.291 0.717-10.069 3.925-12.663 8.67l-142.95 257.058c-4.574 8.226-1.638 18.569 6.622 23.211 8.226 4.608 18.637 1.638 23.211-6.622l131.721-236.919 131.55 136.192c6.519 6.724 17.34 6.929 24.132 0.41 6.827-6.519 6.963-17.34 0.444-24.132l-147.456-152.747c-3.345-3.379-7.782-5.257-12.39-5.257zM659.593 157.082c-4.608 0-9.079 1.911-12.254 5.188l-147.49 152.747c-6.485 6.861-6.349 17.647 0.444 24.132 6.724 6.588 17.613 6.417 24.132-0.41l131.516-136.124 131.721 236.885c4.54 8.26 14.95 11.23 23.211 6.622 8.26-4.574 11.196-14.95 6.588-23.245l-142.95-257.058c-2.594-4.676-7.339-7.851-12.663-8.602-0.785-0.068-1.502-0.137-2.253-0.137zM512.068 309.794c-141.824 0-256.956 222.481-256.956 367.65 0 141.687 115.302 256.956 256.956 256.956s256.922-115.268 256.922-256.956c0-145.135-115.063-367.65-256.922-367.65zM512.068 900.301c-122.914 0-222.822-99.942-222.822-222.822 0-125.645 104.175-333.517 222.822-333.517s222.788 207.872 222.788 333.517c0 122.88-99.908 222.822-222.788 222.822zM633.139-38.4c-19.012 0-38.468 0.137-58.539 0.273-40.789 0.273-84.207 0.273-125.065 0-159.846-1.058-286.242-1.911-348.501 60.075-25.19 24.986-37.956 59.324-37.956 101.99 0 111.855 91.17 297.54 238.455 402.432l19.797-27.785c-134.11-95.403-224.119-270.746-224.119-374.613 0-33.724 9.148-59.187 27.853-77.79 52.224-51.917 178.415-51.132 324.267-50.142 40.892 0.273 84.446 0.273 125.44 0 145.852-0.99 271.872-1.809 324.13 50.142 18.739 18.603 27.853 44.066 27.853 77.79 0 103.799-90.078 279.142-224.051 374.613l19.797 27.785c147.251-104.892 238.387-290.543 238.387-402.432 0-42.667-12.8-77.005-37.99-102.059-54.443-54.067-157.833-60.279-289.758-60.279z" />
<glyph unicode="&#xe630;" d="M424.465 926.968c-241.961-43.768-416.206-249.394-416.206-491.355 0-214.71 137.91-404.645 342.71-472.361 53.677-17.342 81.755-21.471 152.774-21.471 75.148-0.826 95.794 2.477 156.903 23.948 154.426 54.503 261.781 162.684 315.458 317.11 27.252 77.626 27.252 227.923 0 305.548-52.852 153.6-161.858 263.432-311.329 314.632-74.323 26.426-173.419 35.51-240.31 23.948zM604.49 884.852c123.871-25.6 250.219-123.871 307.2-239.484 31.381-63.587 54.503-152.774 54.503-209.755 0-94.968-51.2-228.748-114.787-302.245-42.942-49.548-132.129-109.832-194.89-132.129-61.935-22.297-175.897-29.729-245.265-16.516-232.877 45.419-397.213 278.297-363.355 515.303 25.6 180.026 169.29 340.232 341.884 382.348 55.329 13.213 157.729 14.039 214.71 2.477zM402.168 640.413c-9.91-9.084-6.606-405.471 3.303-411.252 10.735-7.432 312.981 192.413 312.981 206.452 0 8.258-293.987 210.581-306.374 210.581-2.477 0-7.432-2.477-9.91-5.781zM552.465 511.587l114.787-75.974-111.484-74.323c-61.935-41.29-114.787-75.148-118.916-76.8s-7.432 66.065-7.432 150.297c0 84.232 1.652 153.6 4.129 153.6s56.155-34.684 118.916-76.8z" />
<glyph unicode="&#xe631;" d="M900.267 243.2h-776.533c-68.233 0-123.733 55.501-123.733 123.733v469.333c0 68.233 55.501 123.733 123.733 123.733h776.533c68.233 0 123.733-55.501 123.733-123.733v-469.333c0-68.233-55.501-123.733-123.733-123.733zM123.733 925.867c-49.391 0-89.6-40.209-89.6-89.6v-469.333c0-49.391 40.209-89.6 89.6-89.6h776.533c49.391 0 89.6 40.209 89.6 89.6v469.333c0 49.391-40.209 89.6-89.6 89.6h-776.533zM772.267-64h-520.533c-44.715 0-81.067 36.318-81.067 81.067v42.667c0 44.749 36.352 81.067 81.067 81.067h520.533c44.749 0 81.067-36.318 81.067-81.067v-42.667c0-44.749-36.318-81.067-81.067-81.067zM251.733 106.667c-25.873 0-46.933-21.060-46.933-46.933v-42.667c0-25.873 21.060-46.933 46.933-46.933h520.533c25.873 0 46.933 21.060 46.933 46.933v42.667c0 25.873-21.060 46.933-46.933 46.933h-520.533zM563.2 106.667h-136.533c-9.421 0-17.067 7.68-17.067 17.067v136.533c0 9.387 7.646 17.067 17.067 17.067h136.533c9.387 0 17.067-7.68 17.067-17.067v-136.533c0-9.387-7.68-17.067-17.067-17.067zM443.733 140.8h102.4v102.4h-102.4v-102.4zM170.667 38.4h-136.533c-9.421 0-17.067 7.68-17.067 17.067s7.646 17.067 17.067 17.067h136.533c9.421 0 17.067-7.68 17.067-17.067s-7.646-17.067-17.067-17.067zM955.733 38.4h-102.4c-9.387 0-17.067 7.68-17.067 17.067s7.68 17.067 17.067 17.067h102.4c9.387 0 17.067-7.68 17.067-17.067s-7.68-17.067-17.067-17.067zM904.533 379.733h-785.067c-9.421 0-17.067 7.68-17.067 17.067v443.733c0 9.421 7.646 17.067 17.067 17.067h785.067c9.387 0 17.067-7.646 17.067-17.067v-443.733c0-9.387-7.68-17.067-17.067-17.067zM136.533 413.867h750.933v409.6h-750.933v-409.6z" />
<glyph unicode="&#xe632;" d="M473.429 665.6c117.623 0 213.333-95.71 213.333-213.333 0-117.589-95.71-213.333-213.333-213.333s-213.333 95.744-213.333 213.333c0 117.623 95.676 213.333 213.333 213.333zM473.429 708.267c-141.38 0-256-114.62-256-256 0-141.414 114.62-256 256-256s256 114.586 256 256c-0.034 141.38-114.62 256-256 256v0zM473.429 93.867c-197.632 0-358.4 160.768-358.4 358.4s160.768 358.4 358.4 358.4c197.666 0 358.4-160.768 358.4-358.4s-160.836-358.4-358.4-358.4zM473.429 776.533c-178.79 0-324.267-145.476-324.267-324.267s145.476-324.267 324.267-324.267c178.79 0 324.267 145.476 324.267 324.267-0.034 178.79-145.51 324.267-324.267 324.267zM277.504 717.38c-3.004 0-6.007 0.785-8.704 2.355-5.188 3.106-8.363 8.67-8.363 14.711v208.486c0 9.421 7.646 17.067 17.067 17.067h375.467c9.387 0 17.067-7.646 17.067-17.067v-200.363c0-7.031-4.335-13.38-10.889-15.906-6.485-2.56-14.029-0.853-18.773 4.369-25.668 28.058-92.809 45.5-175.138 45.5-64.341 0-107.383-17.613-179.541-57.105-2.56-1.365-5.359-2.048-8.192-2.048zM294.571 925.867v-162.884c54.545 28.57 103.014 47.684 170.667 47.684 28.945 0 114.893-2.799 170.667-33.86v149.060h-341.333zM653.005-64h-375.467c-9.421 0-17.067 7.68-17.067 17.067v216.986c0 6.007 3.174 11.605 8.363 14.746 5.188 3.004 11.605 3.14 16.896 0.273 72.158-39.458 115.2-57.071 179.541-57.071 71.919 0 147.217 23.040 175.138 53.589 4.745 5.188 12.254 6.929 18.773 4.403 6.554-2.594 10.889-8.875 10.889-15.94v-216.986c0-9.387-7.68-17.067-17.067-17.067zM294.571-29.867h341.333v164.796c-46.455-28.058-116.156-41.062-170.667-41.062-67.686 0-116.122 19.217-170.667 47.65v-171.383zM473.429 435.2c-4.369 0-8.738 1.673-12.083 4.983-6.656 6.69-6.656 17.476 0 24.132l128 128c6.656 6.656 17.476 6.656 24.132 0s6.656-17.442 0-24.132l-128-128c-3.345-3.311-7.68-4.983-12.049-4.983zM473.429 435.2c-4.369 0-8.738 1.673-12.083 4.983l-85.333 85.333c-6.656 6.69-6.656 17.476 0 24.132s17.476 6.656 24.132 0l85.333-85.333c6.656-6.656 6.656-17.442 0-24.132-3.345-3.311-7.68-4.983-12.049-4.983zM891.938 396.8c-9.421 0-17.067 7.68-17.067 17.067v68.267c0 9.421 7.646 17.067 17.067 17.067 9.387 0 17.067-7.646 17.067-17.067v-68.267c0-9.387-7.68-17.067-17.067-17.067z" />
<glyph unicode="&#xe633;" d="M1006.933 72.533h-989.867c-9.421 0-17.067 7.68-17.067 17.067v716.8c0 9.421 7.646 17.067 17.067 17.067h989.867c9.387 0 17.067-7.646 17.067-17.067v-716.8c0-9.387-7.68-17.067-17.067-17.067zM34.133 106.667h955.733v682.667h-955.733v-682.667zM989.867 618.667h-955.733c-9.421 0-17.067 7.646-17.067 17.067s7.646 17.067 17.067 17.067h955.733c9.387 0 17.067-7.646 17.067-17.067s-7.68-17.067-17.067-17.067zM178.825 738.133c0-11.785-9.549-21.333-21.333-21.333s-21.333 9.549-21.333 21.333c0 11.785 9.549 21.333 21.333 21.333s21.333-9.549 21.333-21.333zM264.158 738.133c0-11.785-9.549-21.333-21.333-21.333s-21.333 9.549-21.333 21.333c0 11.785 9.549 21.333 21.333 21.333s21.333-9.549 21.333-21.333zM349.491 738.133c0-11.785-9.549-21.333-21.333-21.333s-21.333 9.549-21.333 21.333c0 11.785 9.549 21.333 21.333 21.333s21.333-9.549 21.333-21.333z" />
<glyph unicode="&#xe634;" d="M70.783 927.44c-3.303-6.135-4.719-143.454-4.719-412.903 0-360.524 0.944-403.937 7.55-410.544s32.56-7.55 217.069-7.55h209.519v-23.123c0-13.213-1.888-25.010-4.719-26.426-6.606-4.247-5.663-51.436 0.944-58.042 8.022-8.022 34.448-7.078 41.526 1.416 5.663 6.606 5.191 14.157-2.831 81.637l-2.831 24.538h19.347c10.853 0 19.347-1.416 19.347-2.831 0-1.888-4.247-28.785-9.438-59.93-6.606-38.223-8.494-58.042-5.191-61.346 2.831-2.831 41.526-10.853 86.356-17.932l81.637-13.213 81.637 12.269c45.301 7.078 85.412 15.1 89.659 18.404 7.55 5.191 7.078 9.91-1.888 64.177-5.663 31.617-8.966 59.458-8.022 61.346 0.944 2.359 25.954 3.775 55.683 3.775 75.030 0 74.559-4.719 5.663 99.097-59.458 89.659-53.795 84.94-100.984 84.94h-39.167v319.941c0 242.551-1.416 321.357-5.663 325.604s-92.018 5.663-365.714 5.663c-350.614 0-360.052 0-364.771-8.966zM773.899 594.286v-309.088h-198.665l-10.853-11.797c-6.135-6.135-29.729-40.111-52.852-75.502l-41.998-63.705h-365.714v769.18h670.083v-309.088zM902.724 204.033c16.516-24.066 33.976-49.548 38.695-56.627l8.022-13.213h-439.801l15.1 23.594 15.572 23.594h80.221c56.627 0 82.581 1.888 86.356 5.663 7.078 7.078 7.55 21.235 0.472 25.010-2.359 1.888-33.504 2.831-68.424 2.831-34.92-0.472-65.593 0.472-67.952 1.888-2.831 1.416 0 8.966 5.663 16.988l10.382 13.685h285.493l30.201-43.414zM847.513 95.027c4.247-4.247 17.46-92.962 14.629-96.265-1.888-1.416-32.56-7.55-68.896-13.213l-65.593-10.382-67.008 10.853c-36.807 6.135-67.952 11.325-68.896 12.269-1.888 1.888 11.325 85.884 15.1 97.681 1.888 5.663 21.707 6.135 120.332 4.247 65.121-1.416 118.916-3.775 120.332-5.191zM291.156 697.158c-7.55-7.55-2.831-25.010 7.55-27.37 5.663-1.416 71.727-1.888 146.758-1.416 121.276 1.416 136.848 2.359 141.095 9.438 3.775 5.663 3.303 9.91-0.944 15.1-5.663 6.606-24.538 7.55-149.117 7.55-78.334 0-143.926-1.416-145.342-3.303zM293.515 564.085c-3.775-1.888-5.663-8.966-4.719-15.1l1.416-11.325h145.814c130.713 0 146.286 0.944 150.533 8.022 3.775 5.663 3.303 9.91-0.944 15.1-5.663 6.606-24.066 7.55-146.286 7.55-76.918 0-142.511-1.888-145.814-4.247zM289.268 423.934c-1.416-4.247-0.944-11.325 1.888-15.572 4.247-6.606 21.707-7.55 143.454-8.966 150.061-1.416 159.971 0 153.364 21.707-3.303 10.382-3.775 10.382-149.589 10.382-130.713 0-146.286-0.944-149.117-7.55z" />
<glyph unicode="&#xe635;" d="M147.229 751.897c-121.276-70.783-138.264-82.109-136.848-91.075 1.416-7.55 470.474-653.095 490.293-674.802 7.078-7.55 25.482 1.888 37.751 19.819 6.606 9.438 115.613 158.555 242.551 331.266 126.466 172.712 231.226 317.11 232.17 320.885s0 9.438-1.888 12.269c-2.359 2.831-64.649 40.582-138.735 83.524l-134.96 78.806h-452.070l-138.264-80.693zM712.553 792.007c0-1.888-7.55-28.785-16.988-60.402-8.966-31.617-17.932-60.874-18.876-65.121-2.359-8.022-14.157-8.494-165.161-8.494-89.187 0-162.33 0.472-162.33 1.416 0 0.472-8.494 29.729-18.876 64.649s-18.876 65.121-18.876 67.48c0 1.888 90.131 3.303 200.553 3.303s200.553-1.416 200.553-2.831zM293.987 720.752c9.438-33.032 16.516-60.402 15.572-61.346s-57.099-0.944-125.051-0.472l-123.635 1.416 102.872 59.93c56.627 33.032 105.231 59.93 108.063 59.93 2.831 0.472 12.741-26.426 22.179-59.458zM858.839 720.752l103.344-60.402-123.163-1.416c-67.952-0.472-124.107 0-125.051 0.944-3.303 3.303 33.032 120.804 37.279 120.804 2.359 0 50.964-26.898 107.591-59.93zM404.881 345.6c44.358-151.476 80.221-275.112 79.749-275.583-0.944-0.944-373.736 505.865-398.747 541.257-6.135 8.494-2.359 8.966 116.085 8.966h121.747l81.165-274.64zM660.645 616.936c0-6.135-147.701-506.337-149.117-504.922-1.888 1.888-148.173 499.731-148.173 503.978 0 2.359 67.008 4.247 148.645 4.247s148.645-1.416 148.645-3.303zM929.622 600.42c-8.022-11.325-99.097-135.432-201.969-275.583-102.872-140.623-187.812-255.292-188.284-254.82-0.944 0.944 60.402 211.406 155.252 532.763l5.191 17.46h244.911l-15.1-19.819z" />
<glyph unicode="&#xe636;" d="M175.543 949.618c-7.55-7.55-8.494-985.777-0.944-999.934 4.719-8.494 13.685-8.966 334.098-8.966 250.101 0 330.794 1.416 335.041 5.663 8.022 8.022 8.022 995.215 0 1003.237s-660.173 8.022-668.195 0zM814.009 448v-471.889h-608.737l-1.416 467.171c-0.472 257.18 0 470.002 1.416 473.305 1.416 4.719 65.121 5.663 305.312 4.719l303.425-1.416v-471.889zM652.623 837.309c-34.92-8.022-53.324-33.504-53.324-73.143 0-28.313 11.325-51.436 30.673-63.705 20.763-12.741 62.289-12.741 87.771 0l18.876 9.91-2.831 58.514-64.177 2.831 1.416-13.213c0.944-10.853 3.775-13.685 16.988-14.629 29.257-2.831 11.797-29.257-19.347-29.257-37.751 0-54.739 65.121-23.594 89.659 16.516 12.741 37.279 12.269 50.020-1.888 8.022-8.494 14.157-10.853 23.594-8.966 7.078 1.416 12.741 5.663 12.741 9.438 0 11.325-26.426 34.448-39.167 34.448-6.606 0-14.629 0.944-18.404 1.888-3.303 0.944-13.213 0-21.235-1.888zM287.853 764.638v-73.615h28.313l0.472 50.964 0.472 50.492 12.741-49.548c12.269-48.605 13.213-49.548 27.37-50.964l14.157-1.416 27.37 106.647 1.416-52.852 1.416-53.324h27.841v146.286h-45.773l-7.55-26.898c-3.775-15.1-9.91-36.807-12.741-48.605l-6.135-21.235-12.269 47.189-12.741 47.189-44.358 2.831v-73.143zM471.889 770.3c-33.032-84.94-32.088-79.277-14.157-79.277 12.269 0 15.572 2.831 21.707 16.516 6.606 16.044 7.078 16.516 34.92 16.516s28.313-0.472 34.92-16.516c6.135-13.685 9.438-16.516 21.235-16.516 8.494 0 14.629 2.359 14.629 6.135-0.472 2.831-12.269 35.392-27.37 71.727l-26.898 66.065-33.032 2.831-25.954-67.48zM276.999 612.218c-1.888-1.416-3.303-67.008-3.303-145.342 0-114.669 1.416-143.926 6.606-148.173 4.247-3.775 69.84-4.719 234.529-4.247l228.394 1.416v297.29l-231.698 1.416c-127.41 0.472-233.113-0.472-234.529-2.359zM712.553 464.516v-117.972h-405.825v235.945h405.825v-117.972zM282.19 270.57c-7.55-4.247-8.494-14.629-8.494-111.838 0-58.986 1.888-109.95 3.775-113.253 3.303-4.247 27.841-5.663 107.591-4.719l103.344 1.416 1.416 110.894c0.944 100.041 0.472 111.366-7.078 116.557-9.91 7.55-188.284 8.494-200.553 0.944zM457.733 155.429v-82.581h-151.005v165.161h151.005v-82.581zM536.066 268.21c-6.606-6.135-7.55-23.123-7.55-112.31 0-83.996 1.416-106.647 6.606-110.894 4.247-3.775 36.807-5.191 107.119-4.247l100.984 1.416 1.416 110.422c0.944 77.39-0.472 112.31-4.247 116.557-8.494 10.382-193.947 9.438-204.328-0.944zM712.553 155.429v-82.581h-146.286v165.161h146.286v-82.581z" />
</font>
</defs>
</svg>
